<?xml version="1.0" encoding="UTF-8" standalone="no"?>
<!DOCTYPE svg PUBLIC "-//W3C//DTD SVG 1.1//EN"
 "http://www.w3.org/Graphics/SVG/1.1/DTD/svg11.dtd">
<!-- Generated by graphviz version 2.42.3 (20191010.1750)
 -->
<!-- Title: inheritance66a5a39ad9 Pages: 1 -->
<svg width="249pt" height="134pt"
 viewBox="0.00 0.00 248.86 134.00" xmlns="http://www.w3.org/2000/svg" xmlns:xlink="http://www.w3.org/1999/xlink">
<g id="graph0" class="graph" transform="scale(1 1) rotate(0) translate(4 130)">
<title>inheritance66a5a39ad9</title>
<!-- Namespace -->
<g id="node1" class="node">
<title>Namespace</title>
<g id="a_node1"><a xlink:href="../api/tollan.utils.namespace.Namespace.html#tollan.utils.namespace.Namespace" xlink:title="A convenient class that manages a set of attributes." target="_top">
<polygon fill="white" stroke="black" stroke-width="0.5" points="241.04,-36 171.32,-36 171.32,-18 241.04,-18 241.04,-36"/>
<text text-anchor="middle" x="206.18" y="-24" font-family="Vera Sans, DejaVu Sans, Liberation Sans, Arial, Helvetica, sans" font-size="10.00">Namespace</text>
</a>
</g>
</g>
<!-- NamespaceMixin -->
<g id="node2" class="node">
<title>NamespaceMixin</title>
<g id="a_node2"><a xlink:title="A mixin class that allows converting object to and from dict.">
<polygon fill="white" stroke="black" stroke-width="0.5" points="113.94,-54 21.55,-54 21.55,-36 113.94,-36 113.94,-54"/>
<text text-anchor="middle" x="67.75" y="-42" font-family="Vera Sans, DejaVu Sans, Liberation Sans, Arial, Helvetica, sans" font-size="10.00">NamespaceMixin</text>
</a>
</g>
</g>
<!-- NamespaceMixin&#45;&gt;Namespace -->
<g id="edge1" class="edge">
<title>NamespaceMixin&#45;&gt;Namespace</title>
<path fill="none" stroke="black" stroke-width="0.5" d="M114.18,-39.01C130.89,-36.8 149.67,-34.32 165.8,-32.19"/>
<polygon fill="black" stroke="black" stroke-width="0.5" points="166.44,-33.88 171.17,-31.49 165.98,-30.41 166.44,-33.88"/>
</g>
<!-- SimpleNamespace -->
<g id="node3" class="node">
<title>SimpleNamespace</title>
<g id="a_node3"><a xlink:title="A simple attribute&#45;based namespace.">
<polygon fill="white" stroke="black" stroke-width="0.5" points="117.67,-18 17.82,-18 17.82,0 117.67,0 117.67,-18"/>
<text text-anchor="middle" x="67.75" y="-6" font-family="Vera Sans, DejaVu Sans, Liberation Sans, Arial, Helvetica, sans" font-size="10.00">SimpleNamespace</text>
</a>
</g>
</g>
<!-- SimpleNamespace&#45;&gt;Namespace -->
<g id="edge2" class="edge">
<title>SimpleNamespace&#45;&gt;Namespace</title>
<path fill="none" stroke="black" stroke-width="0.5" d="M118,-15.5C133.91,-17.6 151.31,-19.89 166.36,-21.88"/>
<polygon fill="black" stroke="black" stroke-width="0.5" points="166.18,-23.62 171.37,-22.54 166.64,-20.15 166.18,-23.62"/>
</g>
<!-- NamespaceNotFoundError -->
<g id="node4" class="node">
<title>NamespaceNotFoundError</title>
<g id="a_node4"><a xlink:href="../api/tollan.utils.namespace.NamespaceNotFoundError.html#tollan.utils.namespace.NamespaceNotFoundError" xlink:title="NamespaceNotFoundError" target="_top">
<polygon fill="white" stroke="black" stroke-width="0.5" points="135.75,-90 -0.25,-90 -0.25,-72 135.75,-72 135.75,-90"/>
<text text-anchor="middle" x="67.75" y="-78" font-family="Vera Sans, DejaVu Sans, Liberation Sans, Arial, Helvetica, sans" font-size="10.00">NamespaceNotFoundError</text>
</a>
</g>
</g>
<!-- NamespaceTypeError -->
<g id="node5" class="node">
<title>NamespaceTypeError</title>
<g id="a_node5"><a xlink:href="../api/tollan.utils.namespace.NamespaceTypeError.html#tollan.utils.namespace.NamespaceTypeError" xlink:title="NamespaceTypeError" target="_top">
<polygon fill="white" stroke="black" stroke-width="0.5" points="124.51,-126 10.98,-126 10.98,-108 124.51,-108 124.51,-126"/>
<text text-anchor="middle" x="67.75" y="-114" font-family="Vera Sans, DejaVu Sans, Liberation Sans, Arial, Helvetica, sans" font-size="10.00">NamespaceTypeError</text>
</a>
</g>
</g>
</g>
</svg>
