<?xml version="1.0" encoding="UTF-8" standalone="no"?>
<!DOCTYPE svg PUBLIC "-//W3C//DTD SVG 1.1//EN"
 "http://www.w3.org/Graphics/SVG/1.1/DTD/svg11.dtd">
<!-- Generated by graphviz version 2.47.1 (20210417.1919)
 -->
<!-- Title: inheritance8898b224ff Pages: 1 -->
<svg width="1229pt" height="760pt"
 viewBox="0.00 0.00 1229.00 760.00" xmlns="http://www.w3.org/2000/svg" xmlns:xlink="http://www.w3.org/1999/xlink">
<g id="graph0" class="graph" transform="scale(1 1) rotate(0) translate(4 756)">
<title>inheritance8898b224ff</title>
<!-- AllowsLambdaRole -->
<g id="node1" class="node">
<title>AllowsLambdaRole</title>
<polygon fill="white" stroke="black" stroke-width="0.5" points="203.5,-412 102.5,-412 102.5,-393 203.5,-393 203.5,-412"/>
<text text-anchor="middle" x="153" y="-400" font-family="Vera Sans, DejaVu Sans, Liberation Sans, Arial, Helvetica, sans" font-size="10.00">AllowsLambdaRole</text>
</g>
<!-- OrderByRole -->
<g id="node19" class="node">
<title>OrderByRole</title>
<polygon fill="white" stroke="black" stroke-width="0.5" points="538.5,-412 465.5,-412 465.5,-393 538.5,-393 538.5,-412"/>
<text text-anchor="middle" x="502" y="-400" font-family="Vera Sans, DejaVu Sans, Liberation Sans, Arial, Helvetica, sans" font-size="10.00">OrderByRole</text>
</g>
<!-- AllowsLambdaRole&#45;&gt;OrderByRole -->
<g id="edge51" class="edge">
<title>AllowsLambdaRole&#45;&gt;OrderByRole</title>
<path fill="none" stroke="black" stroke-width="0.5" d="M203.72,-402.5C272.62,-402.5 395.86,-402.5 459.87,-402.5"/>
<polygon fill="black" stroke="black" stroke-width="0.5" points="460.13,-404.25 465.13,-402.5 460.13,-400.75 460.13,-404.25"/>
</g>
<!-- ColumnsClauseRole -->
<g id="node20" class="node">
<title>ColumnsClauseRole</title>
<polygon fill="white" stroke="black" stroke-width="0.5" points="377.5,-300 270.5,-300 270.5,-281 377.5,-281 377.5,-300"/>
<text text-anchor="middle" x="324" y="-288" font-family="Vera Sans, DejaVu Sans, Liberation Sans, Arial, Helvetica, sans" font-size="10.00">ColumnsClauseRole</text>
</g>
<!-- AllowsLambdaRole&#45;&gt;ColumnsClauseRole -->
<g id="edge25" class="edge">
<title>AllowsLambdaRole&#45;&gt;ColumnsClauseRole</title>
<path fill="none" stroke="black" stroke-width="0.5" d="M198.8,-392.9C204.3,-390.45 209.54,-387.37 214,-383.5 241.92,-359.26 221.31,-331.82 250,-308.5 254.67,-304.7 260.02,-301.69 265.66,-299.31"/>
<polygon fill="black" stroke="black" stroke-width="0.5" points="266.43,-300.88 270.46,-297.44 265.17,-297.62 266.43,-300.88"/>
</g>
<!-- JoinTargetRole -->
<g id="node35" class="node">
<title>JoinTargetRole</title>
<polygon fill="white" stroke="black" stroke-width="0.5" points="365,-374 283,-374 283,-355 365,-355 365,-374"/>
<text text-anchor="middle" x="324" y="-362" font-family="Vera Sans, DejaVu Sans, Liberation Sans, Arial, Helvetica, sans" font-size="10.00">JoinTargetRole</text>
</g>
<!-- AllowsLambdaRole&#45;&gt;JoinTargetRole -->
<g id="edge43" class="edge">
<title>AllowsLambdaRole&#45;&gt;JoinTargetRole</title>
<path fill="none" stroke="black" stroke-width="0.5" d="M196.65,-392.91C221.49,-387.33 252.79,-380.29 278.02,-374.61"/>
<polygon fill="black" stroke="black" stroke-width="0.5" points="278.49,-376.3 282.98,-373.5 277.72,-372.89 278.49,-376.3"/>
</g>
<!-- OnClauseRole -->
<g id="node39" class="node">
<title>OnClauseRole</title>
<polygon fill="white" stroke="black" stroke-width="0.5" points="364,-450 284,-450 284,-431 364,-431 364,-450"/>
<text text-anchor="middle" x="324" y="-438" font-family="Vera Sans, DejaVu Sans, Liberation Sans, Arial, Helvetica, sans" font-size="10.00">OnClauseRole</text>
</g>
<!-- AllowsLambdaRole&#45;&gt;OnClauseRole -->
<g id="edge49" class="edge">
<title>AllowsLambdaRole&#45;&gt;OnClauseRole</title>
<path fill="none" stroke="black" stroke-width="0.5" d="M196.65,-412.09C221.76,-417.74 253.48,-424.87 278.86,-430.57"/>
<polygon fill="black" stroke="black" stroke-width="0.5" points="278.58,-432.31 283.84,-431.7 279.35,-428.89 278.58,-432.31"/>
</g>
<!-- AnonymizedFromClauseRole -->
<g id="node2" class="node">
<title>AnonymizedFromClauseRole</title>
<polygon fill="white" stroke="black" stroke-width="0.5" points="899,-263 755,-263 755,-244 899,-244 899,-263"/>
<text text-anchor="middle" x="827" y="-251" font-family="Vera Sans, DejaVu Sans, Liberation Sans, Arial, Helvetica, sans" font-size="10.00">AnonymizedFromClauseRole</text>
</g>
<!-- FromClause -->
<g id="node32" class="node">
<title>FromClause</title>
<g id="a_node32"><a xlink:title="Represent an element that can be used within the ``FROM``">
<polygon fill="white" stroke="black" stroke-width="0.5" points="1005,-161 935,-161 935,-142 1005,-142 1005,-161"/>
<text text-anchor="middle" x="970" y="-149" font-family="Vera Sans, DejaVu Sans, Liberation Sans, Arial, Helvetica, sans" font-size="10.00">FromClause</text>
</a>
</g>
</g>
<!-- AnonymizedFromClauseRole&#45;&gt;FromClause -->
<g id="edge34" class="edge">
<title>AnonymizedFromClauseRole&#45;&gt;FromClause</title>
<path fill="none" stroke="black" stroke-width="0.5" d="M841.26,-243.9C866.77,-225.45 922.67,-185.02 951.31,-164.29"/>
<polygon fill="black" stroke="black" stroke-width="0.5" points="952.64,-165.49 955.67,-161.14 950.59,-162.66 952.64,-165.49"/>
</g>
<!-- StrictFromClauseRole -->
<g id="node3" class="node">
<title>StrictFromClauseRole</title>
<polygon fill="white" stroke="black" stroke-width="0.5" points="719,-282 606,-282 606,-263 719,-263 719,-282"/>
<text text-anchor="middle" x="662.5" y="-270" font-family="Vera Sans, DejaVu Sans, Liberation Sans, Arial, Helvetica, sans" font-size="10.00">StrictFromClauseRole</text>
</g>
<!-- StrictFromClauseRole&#45;&gt;AnonymizedFromClauseRole -->
<g id="edge1" class="edge">
<title>StrictFromClauseRole&#45;&gt;AnonymizedFromClauseRole</title>
<path fill="none" stroke="black" stroke-width="0.5" d="M719.42,-265.96C729.21,-264.82 739.53,-263.61 749.76,-262.41"/>
<polygon fill="black" stroke="black" stroke-width="0.5" points="750,-264.15 754.76,-261.83 749.59,-260.67 750,-264.15"/>
</g>
<!-- BinaryElementRole -->
<g id="node4" class="node">
<title>BinaryElementRole</title>
<polygon fill="white" stroke="black" stroke-width="0.5" points="552.5,-752 451.5,-752 451.5,-733 552.5,-733 552.5,-752"/>
<text text-anchor="middle" x="502" y="-740" font-family="Vera Sans, DejaVu Sans, Liberation Sans, Arial, Helvetica, sans" font-size="10.00">BinaryElementRole</text>
</g>
<!-- ColumnElement -->
<g id="node16" class="node">
<title>ColumnElement</title>
<g id="a_node16"><a xlink:title="Represent a column&#45;oriented SQL expression suitable for usage in the">
<polygon fill="white" stroke="black" stroke-width="0.5" points="705.5,-526 619.5,-526 619.5,-507 705.5,-507 705.5,-526"/>
<text text-anchor="middle" x="662.5" y="-514" font-family="Vera Sans, DejaVu Sans, Liberation Sans, Arial, Helvetica, sans" font-size="10.00">ColumnElement</text>
</a>
</g>
</g>
<!-- BinaryElementRole&#45;&gt;ColumnElement -->
<g id="edge14" class="edge">
<title>BinaryElementRole&#45;&gt;ColumnElement</title>
<path fill="none" stroke="black" stroke-width="0.5" d="M545.9,-732.89C554.61,-729.44 563.19,-724.78 570,-718.5 628.01,-665.03 651.78,-567.73 658.95,-531.03"/>
<polygon fill="black" stroke="black" stroke-width="0.5" points="660.68,-531.31 659.89,-526.07 657.24,-530.65 660.68,-531.31"/>
</g>
<!-- ExpressionElementRole -->
<g id="node5" class="node">
<title>ExpressionElementRole</title>
<polygon fill="white" stroke="black" stroke-width="0.5" points="214,-752 92,-752 92,-733 214,-733 214,-752"/>
<text text-anchor="middle" x="153" y="-740" font-family="Vera Sans, DejaVu Sans, Liberation Sans, Arial, Helvetica, sans" font-size="10.00">ExpressionElementRole</text>
</g>
<!-- ExpressionElementRole&#45;&gt;BinaryElementRole -->
<g id="edge2" class="edge">
<title>ExpressionElementRole&#45;&gt;BinaryElementRole</title>
<path fill="none" stroke="black" stroke-width="0.5" d="M214.05,-742.5C279.33,-742.5 382.77,-742.5 446,-742.5"/>
<polygon fill="black" stroke="black" stroke-width="0.5" points="446.23,-744.25 451.23,-742.5 446.23,-740.75 446.23,-744.25"/>
</g>
<!-- ByOfRole -->
<g id="node6" class="node">
<title>ByOfRole</title>
<polygon fill="white" stroke="black" stroke-width="0.5" points="353.5,-337 294.5,-337 294.5,-318 353.5,-318 353.5,-337"/>
<text text-anchor="middle" x="324" y="-325" font-family="Vera Sans, DejaVu Sans, Liberation Sans, Arial, Helvetica, sans" font-size="10.00">ByOfRole</text>
</g>
<!-- ByOfRole&#45;&gt;OrderByRole -->
<g id="edge52" class="edge">
<title>ByOfRole&#45;&gt;OrderByRole</title>
<path fill="none" stroke="black" stroke-width="0.5" d="M353.59,-333.24C367.28,-336.42 383.75,-340.87 398,-346.5 428.62,-358.6 461.67,-377.77 481.85,-390.24"/>
<polygon fill="black" stroke="black" stroke-width="0.5" points="481.04,-391.79 486.2,-392.95 482.89,-388.82 481.04,-391.79"/>
</g>
<!-- ColumnListRole -->
<g id="node7" class="node">
<title>ColumnListRole</title>
<g id="a_node7"><a xlink:title="Elements suitable for forming comma separated lists of expressions.">
<polygon fill="white" stroke="black" stroke-width="0.5" points="196,-337 110,-337 110,-318 196,-318 196,-337"/>
<text text-anchor="middle" x="153" y="-325" font-family="Vera Sans, DejaVu Sans, Liberation Sans, Arial, Helvetica, sans" font-size="10.00">ColumnListRole</text>
</a>
</g>
</g>
<!-- ColumnListRole&#45;&gt;ByOfRole -->
<g id="edge3" class="edge">
<title>ColumnListRole&#45;&gt;ByOfRole</title>
<path fill="none" stroke="black" stroke-width="0.5" d="M196.21,-327.5C224.9,-327.5 262.35,-327.5 289.1,-327.5"/>
<polygon fill="black" stroke="black" stroke-width="0.5" points="289.3,-329.25 294.3,-327.5 289.3,-325.75 289.3,-329.25"/>
</g>
<!-- ColumnListRole&#45;&gt;ColumnsClauseRole -->
<g id="edge27" class="edge">
<title>ColumnListRole&#45;&gt;ColumnsClauseRole</title>
<path fill="none" stroke="black" stroke-width="0.5" d="M196.21,-318.26C219.94,-313.06 249.67,-306.55 274.37,-301.15"/>
<polygon fill="black" stroke="black" stroke-width="0.5" points="275.05,-302.79 279.56,-300.01 274.31,-299.37 275.05,-302.79"/>
</g>
<!-- ClauseElement -->
<g id="node8" class="node">
<title>ClauseElement</title>
<g id="a_node8"><a xlink:title="Base class for elements of a programmatically constructed SQL">
<polygon fill="white" stroke="black" stroke-width="0.5" points="543.5,-189 460.5,-189 460.5,-170 543.5,-170 543.5,-189"/>
<text text-anchor="middle" x="502" y="-177" font-family="Vera Sans, DejaVu Sans, Liberation Sans, Arial, Helvetica, sans" font-size="10.00">ClauseElement</text>
</a>
</g>
</g>
<!-- ClauseElement&#45;&gt;ColumnElement -->
<g id="edge22" class="edge">
<title>ClauseElement&#45;&gt;ColumnElement</title>
<path fill="none" stroke="black" stroke-width="0.5" d="M511.38,-189.11C525.11,-205.23 552.59,-239.13 570,-271.5 614.28,-353.83 646.51,-462.19 657.44,-501.47"/>
<polygon fill="black" stroke="black" stroke-width="0.5" points="655.88,-502.4 658.9,-506.75 659.26,-501.47 655.88,-502.4"/>
</g>
<!-- ReturnsRows -->
<g id="node40" class="node">
<title>ReturnsRows</title>
<g id="a_node40"><a xlink:title="The base&#45;most class for Core constructs that have some concept of">
<polygon fill="white" stroke="black" stroke-width="0.5" points="701,-161 624,-161 624,-142 701,-142 701,-161"/>
<text text-anchor="middle" x="662.5" y="-149" font-family="Vera Sans, DejaVu Sans, Liberation Sans, Arial, Helvetica, sans" font-size="10.00">ReturnsRows</text>
</a>
</g>
</g>
<!-- ClauseElement&#45;&gt;ReturnsRows -->
<g id="edge54" class="edge">
<title>ClauseElement&#45;&gt;ReturnsRows</title>
<path fill="none" stroke="black" stroke-width="0.5" d="M543.82,-172.29C566.76,-168.24 595.36,-163.18 618.63,-159.07"/>
<polygon fill="black" stroke="black" stroke-width="0.5" points="619.19,-160.75 623.81,-158.16 618.58,-157.3 619.19,-160.75"/>
</g>
<!-- SQLRole -->
<g id="node9" class="node">
<title>SQLRole</title>
<g id="a_node9"><a xlink:title="Define a &quot;role&quot; within a SQL statement structure.">
<polygon fill="white" stroke="black" stroke-width="0.5" points="56,-525 0,-525 0,-506 56,-506 56,-525"/>
<text text-anchor="middle" x="28" y="-513" font-family="Vera Sans, DejaVu Sans, Liberation Sans, Arial, Helvetica, sans" font-size="10.00">SQLRole</text>
</a>
</g>
</g>
<!-- SQLRole&#45;&gt;ExpressionElementRole -->
<g id="edge33" class="edge">
<title>SQLRole&#45;&gt;ExpressionElementRole</title>
<path fill="none" stroke="black" stroke-width="0.5" d="M28.89,-525.43C29.1,-558.64 34.35,-666.92 92,-724.5 94.12,-726.61 96.47,-728.48 98.99,-730.13"/>
<polygon fill="black" stroke="black" stroke-width="0.5" points="98.47,-731.86 103.67,-732.87 100.24,-728.84 98.47,-731.86"/>
</g>
<!-- SQLRole&#45;&gt;ColumnListRole -->
<g id="edge23" class="edge">
<title>SQLRole&#45;&gt;ColumnListRole</title>
<path fill="none" stroke="black" stroke-width="0.5" d="M29.72,-505.89C32.37,-477.32 44.13,-392.03 92,-346.5 95.8,-342.89 100.28,-339.96 105.06,-337.59"/>
<polygon fill="black" stroke="black" stroke-width="0.5" points="106.09,-339.05 109.93,-335.4 104.65,-335.86 106.09,-339.05"/>
</g>
<!-- SQLRole&#45;&gt;ClauseElement -->
<g id="edge4" class="edge">
<title>SQLRole&#45;&gt;ClauseElement</title>
<path fill="none" stroke="black" stroke-width="0.5" d="M29.33,-505.92C31.3,-454.68 43.1,-213.42 92,-161.5 141.52,-108.92 178.28,-132 250,-123.5 315.32,-115.76 334.25,-107.29 398,-123.5 402.4,-124.62 450.72,-151.39 479.58,-167.51"/>
<polygon fill="black" stroke="black" stroke-width="0.5" points="478.82,-169.08 484.04,-170 480.53,-166.03 478.82,-169.08"/>
</g>
<!-- ColumnArgumentRole -->
<g id="node15" class="node">
<title>ColumnArgumentRole</title>
<polygon fill="white" stroke="black" stroke-width="0.5" points="209.5,-715 96.5,-715 96.5,-696 209.5,-696 209.5,-715"/>
<text text-anchor="middle" x="153" y="-703" font-family="Vera Sans, DejaVu Sans, Liberation Sans, Arial, Helvetica, sans" font-size="10.00">ColumnArgumentRole</text>
</g>
<!-- SQLRole&#45;&gt;ColumnArgumentRole -->
<g id="edge10" class="edge">
<title>SQLRole&#45;&gt;ColumnArgumentRole</title>
<path fill="none" stroke="black" stroke-width="0.5" d="M29.98,-525.18C33.3,-553.2 46.64,-635.32 92,-681.5 96.89,-686.47 102.94,-690.45 109.3,-693.61"/>
<polygon fill="black" stroke="black" stroke-width="0.5" points="108.94,-695.37 114.21,-695.88 110.4,-692.2 108.94,-695.37"/>
</g>
<!-- LimitOffsetRole -->
<g id="node21" class="node">
<title>LimitOffsetRole</title>
<polygon fill="white" stroke="black" stroke-width="0.5" points="544,-676 460,-676 460,-657 544,-657 544,-676"/>
<text text-anchor="middle" x="502" y="-664" font-family="Vera Sans, DejaVu Sans, Liberation Sans, Arial, Helvetica, sans" font-size="10.00">LimitOffsetRole</text>
</g>
<!-- SQLRole&#45;&gt;LimitOffsetRole -->
<g id="edge46" class="edge">
<title>SQLRole&#45;&gt;LimitOffsetRole</title>
<path fill="none" stroke="black" stroke-width="0.5" d="M35.03,-525.48C44.96,-541.06 66.23,-571.07 92,-587.5 207.01,-660.83 374.56,-668.99 454.8,-668.2"/>
<polygon fill="black" stroke="black" stroke-width="0.5" points="454.98,-669.95 459.96,-668.14 454.94,-666.45 454.98,-669.95"/>
</g>
<!-- DMLColumnRole -->
<g id="node22" class="node">
<title>DMLColumnRole</title>
<polygon fill="white" stroke="black" stroke-width="0.5" points="548,-638 456,-638 456,-619 548,-619 548,-638"/>
<text text-anchor="middle" x="502" y="-626" font-family="Vera Sans, DejaVu Sans, Liberation Sans, Arial, Helvetica, sans" font-size="10.00">DMLColumnRole</text>
</g>
<!-- SQLRole&#45;&gt;DMLColumnRole -->
<g id="edge30" class="edge">
<title>SQLRole&#45;&gt;DMLColumnRole</title>
<path fill="none" stroke="black" stroke-width="0.5" d="M45.79,-525.06C81.84,-545.04 169.86,-590.99 250,-610.5 318.13,-627.08 399.48,-629.95 450.7,-629.78"/>
<polygon fill="black" stroke="black" stroke-width="0.5" points="450.88,-631.53 455.87,-629.75 450.86,-628.03 450.88,-631.53"/>
</g>
<!-- DDLConstraintColumnRole -->
<g id="node23" class="node">
<title>DDLConstraintColumnRole</title>
<polygon fill="white" stroke="black" stroke-width="0.5" points="570,-563 434,-563 434,-544 570,-544 570,-563"/>
<text text-anchor="middle" x="502" y="-551" font-family="Vera Sans, DejaVu Sans, Liberation Sans, Arial, Helvetica, sans" font-size="10.00">DDLConstraintColumnRole</text>
</g>
<!-- SQLRole&#45;&gt;DDLConstraintColumnRole -->
<g id="edge28" class="edge">
<title>SQLRole&#45;&gt;DDLConstraintColumnRole</title>
<path fill="none" stroke="black" stroke-width="0.5" d="M56.07,-517.68C127.32,-523.42 321.88,-539.08 428.6,-547.67"/>
<polygon fill="black" stroke="black" stroke-width="0.5" points="428.49,-549.42 433.61,-548.07 428.77,-545.93 428.49,-549.42"/>
</g>
<!-- StructuralRole -->
<g id="node28" class="node">
<title>StructuralRole</title>
<polygon fill="white" stroke="black" stroke-width="0.5" points="192.5,-487 113.5,-487 113.5,-468 192.5,-468 192.5,-487"/>
<text text-anchor="middle" x="153" y="-475" font-family="Vera Sans, DejaVu Sans, Liberation Sans, Arial, Helvetica, sans" font-size="10.00">StructuralRole</text>
</g>
<!-- SQLRole&#45;&gt;StructuralRole -->
<g id="edge60" class="edge">
<title>SQLRole&#45;&gt;StructuralRole</title>
<path fill="none" stroke="black" stroke-width="0.5" d="M56.3,-507.07C73.76,-501.67 96.63,-494.61 115.63,-488.74"/>
<polygon fill="black" stroke="black" stroke-width="0.5" points="116.62,-490.26 120.88,-487.12 115.58,-486.92 116.62,-490.26"/>
</g>
<!-- StatementRole -->
<g id="node30" class="node">
<title>StatementRole</title>
<polygon fill="white" stroke="black" stroke-width="0.5" points="194,-19 112,-19 112,0 194,0 194,-19"/>
<text text-anchor="middle" x="153" y="-7" font-family="Vera Sans, DejaVu Sans, Liberation Sans, Arial, Helvetica, sans" font-size="10.00">StatementRole</text>
</g>
<!-- SQLRole&#45;&gt;StatementRole -->
<g id="edge58" class="edge">
<title>SQLRole&#45;&gt;StatementRole</title>
<path fill="none" stroke="black" stroke-width="0.5" d="M29.29,-505.8C31.21,-446.52 43.55,-132.94 92,-52.5 100.01,-39.2 113.87,-28.86 126.25,-21.66"/>
<polygon fill="black" stroke="black" stroke-width="0.5" points="127.23,-23.12 130.74,-19.15 125.52,-20.06 127.23,-23.12"/>
</g>
<!-- ReturnsRowsRole -->
<g id="node41" class="node">
<title>ReturnsRowsRole</title>
<polygon fill="white" stroke="black" stroke-width="0.5" points="550.5,-133 453.5,-133 453.5,-114 550.5,-114 550.5,-133"/>
<text text-anchor="middle" x="502" y="-121" font-family="Vera Sans, DejaVu Sans, Liberation Sans, Arial, Helvetica, sans" font-size="10.00">ReturnsRowsRole</text>
</g>
<!-- SQLRole&#45;&gt;ReturnsRowsRole -->
<g id="edge55" class="edge">
<title>SQLRole&#45;&gt;ReturnsRowsRole</title>
<path fill="none" stroke="black" stroke-width="0.5" d="M28.8,-505.63C27.83,-446.75 26.06,-142.48 92,-85.5 146.35,-38.54 368.41,-89.01 460.59,-112.66"/>
<polygon fill="black" stroke="black" stroke-width="0.5" points="460.4,-114.42 465.68,-113.97 461.28,-111.03 460.4,-114.42"/>
</g>
<!-- SupportsWrappingAnnotations -->
<g id="node10" class="node">
<title>SupportsWrappingAnnotations</title>
<polygon fill="white" stroke="black" stroke-width="0.5" points="398,-226 250,-226 250,-207 398,-207 398,-226"/>
<text text-anchor="middle" x="324" y="-214" font-family="Vera Sans, DejaVu Sans, Liberation Sans, Arial, Helvetica, sans" font-size="10.00">SupportsWrappingAnnotations</text>
</g>
<!-- SupportsWrappingAnnotations&#45;&gt;ClauseElement -->
<g id="edge5" class="edge">
<title>SupportsWrappingAnnotations&#45;&gt;ClauseElement</title>
<path fill="none" stroke="black" stroke-width="0.5" d="M370.32,-206.97C396.39,-201.49 429.05,-194.63 455.2,-189.13"/>
<polygon fill="black" stroke="black" stroke-width="0.5" points="455.8,-190.79 460.34,-188.05 455.08,-187.36 455.8,-190.79"/>
</g>
<!-- MemoizedHasCacheKey -->
<g id="node11" class="node">
<title>MemoizedHasCacheKey</title>
<polygon fill="white" stroke="black" stroke-width="0.5" points="386.5,-189 261.5,-189 261.5,-170 386.5,-170 386.5,-189"/>
<text text-anchor="middle" x="324" y="-177" font-family="Vera Sans, DejaVu Sans, Liberation Sans, Arial, Helvetica, sans" font-size="10.00">MemoizedHasCacheKey</text>
</g>
<!-- MemoizedHasCacheKey&#45;&gt;ClauseElement -->
<g id="edge6" class="edge">
<title>MemoizedHasCacheKey&#45;&gt;ClauseElement</title>
<path fill="none" stroke="black" stroke-width="0.5" d="M386.56,-179.5C409.13,-179.5 434.26,-179.5 455.21,-179.5"/>
<polygon fill="black" stroke="black" stroke-width="0.5" points="455.44,-181.25 460.44,-179.5 455.44,-177.75 455.44,-181.25"/>
</g>
<!-- HasCopyInternals -->
<g id="node12" class="node">
<title>HasCopyInternals</title>
<polygon fill="white" stroke="black" stroke-width="0.5" points="371.5,-152 276.5,-152 276.5,-133 371.5,-133 371.5,-152"/>
<text text-anchor="middle" x="324" y="-140" font-family="Vera Sans, DejaVu Sans, Liberation Sans, Arial, Helvetica, sans" font-size="10.00">HasCopyInternals</text>
</g>
<!-- HasCopyInternals&#45;&gt;ClauseElement -->
<g id="edge7" class="edge">
<title>HasCopyInternals&#45;&gt;ClauseElement</title>
<path fill="none" stroke="black" stroke-width="0.5" d="M370.32,-152.03C396.39,-157.51 429.05,-164.37 455.2,-169.87"/>
<polygon fill="black" stroke="black" stroke-width="0.5" points="455.08,-171.64 460.34,-170.95 455.8,-168.21 455.08,-171.64"/>
</g>
<!-- Traversible -->
<g id="node13" class="node">
<title>Traversible</title>
<g id="a_node13"><a xlink:title="Base class for visitable objects, applies the">
<polygon fill="white" stroke="black" stroke-width="0.5" points="356.5,-263 291.5,-263 291.5,-244 356.5,-244 356.5,-263"/>
<text text-anchor="middle" x="324" y="-251" font-family="Vera Sans, DejaVu Sans, Liberation Sans, Arial, Helvetica, sans" font-size="10.00">Traversible</text>
</a>
</g>
</g>
<!-- Traversible&#45;&gt;ClauseElement -->
<g id="edge8" class="edge">
<title>Traversible&#45;&gt;ClauseElement</title>
<path fill="none" stroke="black" stroke-width="0.5" d="M356.78,-246.95C369.78,-243.83 384.83,-239.65 398,-234.5 428.37,-222.63 461.23,-203.97 481.47,-191.73"/>
<polygon fill="black" stroke="black" stroke-width="0.5" points="482.48,-193.17 485.84,-189.07 480.66,-190.18 482.48,-193.17"/>
</g>
<!-- ColumnArgumentOrKeyRole -->
<g id="node14" class="node">
<title>ColumnArgumentOrKeyRole</title>
<polygon fill="white" stroke="black" stroke-width="0.5" points="394,-715 254,-715 254,-696 394,-696 394,-715"/>
<text text-anchor="middle" x="324" y="-703" font-family="Vera Sans, DejaVu Sans, Liberation Sans, Arial, Helvetica, sans" font-size="10.00">ColumnArgumentOrKeyRole</text>
</g>
<!-- ColumnArgumentOrKeyRole&#45;&gt;ColumnElement -->
<g id="edge11" class="edge">
<title>ColumnArgumentOrKeyRole&#45;&gt;ColumnElement</title>
<path fill="none" stroke="black" stroke-width="0.5" d="M379.39,-715.03C432.42,-721.31 513.17,-722.57 570,-685.5 626.23,-648.82 650.6,-565.38 658.45,-531.36"/>
<polygon fill="black" stroke="black" stroke-width="0.5" points="660.19,-531.6 659.57,-526.34 656.77,-530.84 660.19,-531.6"/>
</g>
<!-- ColumnArgumentRole&#45;&gt;ColumnArgumentOrKeyRole -->
<g id="edge9" class="edge">
<title>ColumnArgumentRole&#45;&gt;ColumnArgumentOrKeyRole</title>
<path fill="none" stroke="black" stroke-width="0.5" d="M209.81,-705.5C222.28,-705.5 235.71,-705.5 248.8,-705.5"/>
<polygon fill="black" stroke="black" stroke-width="0.5" points="248.99,-707.25 253.99,-705.5 248.99,-703.75 248.99,-707.25"/>
</g>
<!-- FunctionElement -->
<g id="node36" class="node">
<title>FunctionElement</title>
<g id="a_node36"><a xlink:title="Base for SQL function&#45;oriented constructs.">
<polygon fill="white" stroke="black" stroke-width="0.5" points="1131,-114 1041,-114 1041,-95 1131,-95 1131,-114"/>
<text text-anchor="middle" x="1086" y="-102" font-family="Vera Sans, DejaVu Sans, Liberation Sans, Arial, Helvetica, sans" font-size="10.00">FunctionElement</text>
</a>
</g>
</g>
<!-- ColumnElement&#45;&gt;FunctionElement -->
<g id="edge39" class="edge">
<title>ColumnElement&#45;&gt;FunctionElement</title>
<path fill="none" stroke="black" stroke-width="0.5" d="M673.5,-506.72C729.85,-451.64 1007.41,-180.34 1071.69,-117.51"/>
<polygon fill="black" stroke="black" stroke-width="0.5" points="1072.92,-118.75 1075.28,-114.01 1070.48,-116.25 1072.92,-118.75"/>
</g>
<!-- StatementOptionRole -->
<g id="node17" class="node">
<title>StatementOptionRole</title>
<polygon fill="white" stroke="black" stroke-width="0.5" points="557,-526 447,-526 447,-507 557,-507 557,-526"/>
<text text-anchor="middle" x="502" y="-514" font-family="Vera Sans, DejaVu Sans, Liberation Sans, Arial, Helvetica, sans" font-size="10.00">StatementOptionRole</text>
</g>
<!-- StatementOptionRole&#45;&gt;ColumnElement -->
<g id="edge12" class="edge">
<title>StatementOptionRole&#45;&gt;ColumnElement</title>
<path fill="none" stroke="black" stroke-width="0.5" d="M557.1,-516.5C575.71,-516.5 596.38,-516.5 614.39,-516.5"/>
<polygon fill="black" stroke="black" stroke-width="0.5" points="614.39,-518.25 619.39,-516.5 614.39,-514.75 614.39,-518.25"/>
</g>
<!-- WhereHavingRole -->
<g id="node18" class="node">
<title>WhereHavingRole</title>
<polygon fill="white" stroke="black" stroke-width="0.5" points="550,-450 454,-450 454,-431 550,-431 550,-450"/>
<text text-anchor="middle" x="502" y="-438" font-family="Vera Sans, DejaVu Sans, Liberation Sans, Arial, Helvetica, sans" font-size="10.00">WhereHavingRole</text>
</g>
<!-- WhereHavingRole&#45;&gt;ColumnElement -->
<g id="edge13" class="edge">
<title>WhereHavingRole&#45;&gt;ColumnElement</title>
<path fill="none" stroke="black" stroke-width="0.5" d="M533.13,-450.05C544.82,-454.08 558.21,-459.09 570,-464.5 595.72,-476.31 623.81,-492.86 641.99,-504.09"/>
<polygon fill="black" stroke="black" stroke-width="0.5" points="641.22,-505.68 646.39,-506.83 643.06,-502.7 641.22,-505.68"/>
</g>
<!-- OrderByRole&#45;&gt;ColumnElement -->
<g id="edge15" class="edge">
<title>OrderByRole&#45;&gt;ColumnElement</title>
<path fill="none" stroke="black" stroke-width="0.5" d="M538.84,-409.58C549.35,-412.6 560.55,-416.78 570,-422.5 605.47,-443.98 636.76,-482.44 651.88,-502.88"/>
<polygon fill="black" stroke="black" stroke-width="0.5" points="650.5,-503.95 654.86,-506.95 653.32,-501.88 650.5,-503.95"/>
</g>
<!-- ColumnsClauseRole&#45;&gt;ColumnElement -->
<g id="edge16" class="edge">
<title>ColumnsClauseRole&#45;&gt;ColumnElement</title>
<path fill="none" stroke="black" stroke-width="0.5" d="M376.33,-300.09C429.59,-312.19 512.92,-337.36 570,-384.5 611.29,-418.6 642.12,-475.82 654.95,-502.29"/>
<polygon fill="black" stroke="black" stroke-width="0.5" points="653.4,-503.1 657.14,-506.86 656.56,-501.59 653.4,-503.1"/>
</g>
<!-- FromClauseRole -->
<g id="node34" class="node">
<title>FromClauseRole</title>
<polygon fill="white" stroke="black" stroke-width="0.5" points="547,-300 457,-300 457,-281 547,-281 547,-300"/>
<text text-anchor="middle" x="502" y="-288" font-family="Vera Sans, DejaVu Sans, Liberation Sans, Arial, Helvetica, sans" font-size="10.00">FromClauseRole</text>
</g>
<!-- ColumnsClauseRole&#45;&gt;FromClauseRole -->
<g id="edge36" class="edge">
<title>ColumnsClauseRole&#45;&gt;FromClauseRole</title>
<path fill="none" stroke="black" stroke-width="0.5" d="M377.81,-290.5C401.25,-290.5 428.67,-290.5 451.69,-290.5"/>
<polygon fill="black" stroke="black" stroke-width="0.5" points="451.83,-292.25 456.83,-290.5 451.83,-288.75 451.83,-292.25"/>
</g>
<!-- LimitOffsetRole&#45;&gt;ColumnElement -->
<g id="edge17" class="edge">
<title>LimitOffsetRole&#45;&gt;ColumnElement</title>
<path fill="none" stroke="black" stroke-width="0.5" d="M544.34,-659.54C553.33,-656.77 562.42,-652.9 570,-647.5 613.61,-616.45 643.47,-557.77 655.53,-530.76"/>
<polygon fill="black" stroke="black" stroke-width="0.5" points="657.16,-531.38 657.57,-526.1 653.96,-529.98 657.16,-531.38"/>
</g>
<!-- DMLColumnRole&#45;&gt;ColumnElement -->
<g id="edge18" class="edge">
<title>DMLColumnRole&#45;&gt;ColumnElement</title>
<path fill="none" stroke="black" stroke-width="0.5" d="M548.3,-619.13C555.83,-616.6 563.34,-613.44 570,-609.5 605.29,-588.59 636.45,-550.72 651.65,-530.35"/>
<polygon fill="black" stroke="black" stroke-width="0.5" points="653.09,-531.34 654.65,-526.28 650.28,-529.27 653.09,-531.34"/>
</g>
<!-- DDLConstraintColumnRole&#45;&gt;ColumnElement -->
<g id="edge19" class="edge">
<title>DDLConstraintColumnRole&#45;&gt;ColumnElement</title>
<path fill="none" stroke="black" stroke-width="0.5" d="M543.82,-543.97C565.73,-538.86 592.82,-532.53 615.48,-527.24"/>
<polygon fill="black" stroke="black" stroke-width="0.5" points="616.07,-528.9 620.55,-526.06 615.28,-525.49 616.07,-528.9"/>
</g>
<!-- DDLExpressionRole -->
<g id="node24" class="node">
<title>DDLExpressionRole</title>
<polygon fill="white" stroke="black" stroke-width="0.5" points="377,-487 271,-487 271,-468 377,-468 377,-487"/>
<text text-anchor="middle" x="324" y="-475" font-family="Vera Sans, DejaVu Sans, Liberation Sans, Arial, Helvetica, sans" font-size="10.00">DDLExpressionRole</text>
</g>
<!-- DDLExpressionRole&#45;&gt;ColumnElement -->
<g id="edge20" class="edge">
<title>DDLExpressionRole&#45;&gt;ColumnElement</title>
<path fill="none" stroke="black" stroke-width="0.5" d="M377.28,-480.33C427.01,-483.41 503.84,-489.19 570,-498.5 584.42,-500.53 600,-503.36 614.15,-506.17"/>
<polygon fill="black" stroke="black" stroke-width="0.5" points="614.05,-507.93 619.3,-507.2 614.74,-504.5 614.05,-507.93"/>
</g>
<!-- ColumnOperators -->
<g id="node25" class="node">
<title>ColumnOperators</title>
<g id="a_node25"><a xlink:title="Defines boolean, comparison, and other operators for">
<polygon fill="white" stroke="black" stroke-width="0.5" points="548.5,-600 455.5,-600 455.5,-581 548.5,-581 548.5,-600"/>
<text text-anchor="middle" x="502" y="-588" font-family="Vera Sans, DejaVu Sans, Liberation Sans, Arial, Helvetica, sans" font-size="10.00">ColumnOperators</text>
</a>
</g>
</g>
<!-- ColumnOperators&#45;&gt;ColumnElement -->
<g id="edge21" class="edge">
<title>ColumnOperators&#45;&gt;ColumnElement</title>
<path fill="none" stroke="black" stroke-width="0.5" d="M545.8,-580.97C553.98,-578.6 562.36,-575.78 570,-572.5 597.45,-560.71 626.42,-541.71 644.23,-529.16"/>
<polygon fill="black" stroke="black" stroke-width="0.5" points="645.45,-530.44 648.51,-526.12 643.43,-527.59 645.45,-530.44"/>
</g>
<!-- Operators -->
<g id="node26" class="node">
<title>Operators</title>
<g id="a_node26"><a xlink:title="Base of comparison and logical operators.">
<polygon fill="white" stroke="black" stroke-width="0.5" points="353.5,-601 294.5,-601 294.5,-582 353.5,-582 353.5,-601"/>
<text text-anchor="middle" x="324" y="-589" font-family="Vera Sans, DejaVu Sans, Liberation Sans, Arial, Helvetica, sans" font-size="10.00">Operators</text>
</a>
</g>
</g>
<!-- Operators&#45;&gt;ColumnOperators -->
<g id="edge24" class="edge">
<title>Operators&#45;&gt;ColumnOperators</title>
<path fill="none" stroke="black" stroke-width="0.5" d="M353.67,-591.34C379.73,-591.19 418.78,-590.97 450.13,-590.79"/>
<polygon fill="black" stroke="black" stroke-width="0.5" points="450.5,-592.54 455.49,-590.76 450.48,-589.04 450.5,-592.54"/>
</g>
<!-- UsesInspection -->
<g id="node27" class="node">
<title>UsesInspection</title>
<polygon fill="white" stroke="black" stroke-width="0.5" points="195.5,-374 110.5,-374 110.5,-355 195.5,-355 195.5,-374"/>
<text text-anchor="middle" x="153" y="-362" font-family="Vera Sans, DejaVu Sans, Liberation Sans, Arial, Helvetica, sans" font-size="10.00">UsesInspection</text>
</g>
<!-- UsesInspection&#45;&gt;ColumnsClauseRole -->
<g id="edge26" class="edge">
<title>UsesInspection&#45;&gt;ColumnsClauseRole</title>
<path fill="none" stroke="black" stroke-width="0.5" d="M195.57,-355.13C201.99,-352.82 208.35,-349.98 214,-346.5 233.81,-334.3 229.89,-320.2 250,-308.5 254.75,-305.74 259.91,-303.39 265.22,-301.41"/>
<polygon fill="black" stroke="black" stroke-width="0.5" points="266,-302.99 270.14,-299.69 264.84,-299.69 266,-302.99"/>
</g>
<!-- UsesInspection&#45;&gt;JoinTargetRole -->
<g id="edge44" class="edge">
<title>UsesInspection&#45;&gt;JoinTargetRole</title>
<path fill="none" stroke="black" stroke-width="0.5" d="M195.78,-364.5C220.7,-364.5 252.36,-364.5 277.86,-364.5"/>
<polygon fill="black" stroke="black" stroke-width="0.5" points="277.87,-366.25 282.87,-364.5 277.87,-362.75 277.87,-366.25"/>
</g>
<!-- StructuralRole&#45;&gt;StatementOptionRole -->
<g id="edge57" class="edge">
<title>StructuralRole&#45;&gt;StatementOptionRole</title>
<path fill="none" stroke="black" stroke-width="0.5" d="M192.6,-486.2C210.05,-489.86 230.98,-493.87 250,-496.5 315.31,-505.53 390.78,-510.86 441.78,-513.72"/>
<polygon fill="black" stroke="black" stroke-width="0.5" points="441.86,-515.48 446.95,-514.01 442.05,-511.98 441.86,-515.48"/>
</g>
<!-- StructuralRole&#45;&gt;DDLExpressionRole -->
<g id="edge29" class="edge">
<title>StructuralRole&#45;&gt;DDLExpressionRole</title>
<path fill="none" stroke="black" stroke-width="0.5" d="M192.77,-477.5C214.43,-477.5 241.81,-477.5 265.88,-477.5"/>
<polygon fill="black" stroke="black" stroke-width="0.5" points="265.96,-479.25 270.96,-477.5 265.96,-475.75 265.96,-479.25"/>
</g>
<!-- StructuralRole&#45;&gt;JoinTargetRole -->
<g id="edge45" class="edge">
<title>StructuralRole&#45;&gt;JoinTargetRole</title>
<path fill="none" stroke="black" stroke-width="0.5" d="M168.41,-467.87C198.97,-447.43 270.25,-399.77 304.28,-377.02"/>
<polygon fill="black" stroke="black" stroke-width="0.5" points="305.44,-378.34 308.63,-374.11 303.5,-375.43 305.44,-378.34"/>
</g>
<!-- StructuralRole&#45;&gt;OnClauseRole -->
<g id="edge50" class="edge">
<title>StructuralRole&#45;&gt;OnClauseRole</title>
<path fill="none" stroke="black" stroke-width="0.5" d="M192.77,-469.01C218.46,-463.39 252.21,-456 278.92,-450.15"/>
<polygon fill="black" stroke="black" stroke-width="0.5" points="279.31,-451.86 283.82,-449.08 278.56,-448.44 279.31,-451.86"/>
</g>
<!-- Executable -->
<g id="node29" class="node">
<title>Executable</title>
<g id="a_node29"><a xlink:title="Mark a :class:`_expression.ClauseElement` as supporting execution.">
<polygon fill="white" stroke="black" stroke-width="0.5" points="534.5,-38 469.5,-38 469.5,-19 534.5,-19 534.5,-38"/>
<text text-anchor="middle" x="502" y="-26" font-family="Vera Sans, DejaVu Sans, Liberation Sans, Arial, Helvetica, sans" font-size="10.00">Executable</text>
</a>
</g>
</g>
<!-- Executable&#45;&gt;FunctionElement -->
<g id="edge38" class="edge">
<title>Executable&#45;&gt;FunctionElement</title>
<path fill="none" stroke="black" stroke-width="0.5" d="M534.67,-27.89C614.72,-27.07 831.18,-29.27 1005,-71.5 1024.85,-76.32 1046.17,-85.33 1061.81,-92.71"/>
<polygon fill="black" stroke="black" stroke-width="0.5" points="1061.21,-94.37 1066.47,-94.95 1062.72,-91.21 1061.21,-94.37"/>
</g>
<!-- StatementRole&#45;&gt;Executable -->
<g id="edge31" class="edge">
<title>StatementRole&#45;&gt;Executable</title>
<path fill="none" stroke="black" stroke-width="0.5" d="M194.26,-7.26C242.71,-5.08 326.5,-2.96 398,-9.5 420.01,-11.51 444.35,-15.9 463.83,-19.95"/>
<polygon fill="black" stroke="black" stroke-width="0.5" points="463.94,-21.76 469.2,-21.08 464.66,-18.34 463.94,-21.76"/>
</g>
<!-- Generative -->
<g id="node31" class="node">
<title>Generative</title>
<g id="a_node31"><a xlink:title="Provide a method&#45;chaining pattern in conjunction with the">
<polygon fill="white" stroke="black" stroke-width="0.5" points="356,-38 292,-38 292,-19 356,-19 356,-38"/>
<text text-anchor="middle" x="324" y="-26" font-family="Vera Sans, DejaVu Sans, Liberation Sans, Arial, Helvetica, sans" font-size="10.00">Generative</text>
</a>
</g>
</g>
<!-- Generative&#45;&gt;Executable -->
<g id="edge32" class="edge">
<title>Generative&#45;&gt;Executable</title>
<path fill="none" stroke="black" stroke-width="0.5" d="M356.06,-28.5C386.32,-28.5 432.31,-28.5 464.34,-28.5"/>
<polygon fill="black" stroke="black" stroke-width="0.5" points="464.36,-30.25 469.36,-28.5 464.36,-26.75 464.36,-30.25"/>
</g>
<!-- Generative&#45;&gt;FunctionElement -->
<g id="edge41" class="edge">
<title>Generative&#45;&gt;FunctionElement</title>
<path fill="none" stroke="black" stroke-width="0.5" d="M356.25,-37.41C415.34,-53.44 547.74,-85.5 661.5,-85.5 661.5,-85.5 661.5,-85.5 828,-85.5 900.45,-85.5 984.08,-93.1 1035.75,-98.69"/>
<polygon fill="black" stroke="black" stroke-width="0.5" points="1035.8,-100.46 1040.96,-99.26 1036.18,-96.98 1035.8,-100.46"/>
</g>
<!-- FromClause&#45;&gt;FunctionElement -->
<g id="edge40" class="edge">
<title>FromClause&#45;&gt;FunctionElement</title>
<path fill="none" stroke="black" stroke-width="0.5" d="M994.07,-141.99C1012.18,-134.52 1037.48,-124.09 1056.8,-116.13"/>
<polygon fill="black" stroke="black" stroke-width="0.5" points="1057.62,-117.68 1061.57,-114.16 1056.28,-114.45 1057.62,-117.68"/>
</g>
<!-- Selectable -->
<g id="node33" class="node">
<title>Selectable</title>
<g id="a_node33"><a xlink:title="Mark a class as being selectable.">
<polygon fill="white" stroke="black" stroke-width="0.5" points="858,-161 796,-161 796,-142 858,-142 858,-161"/>
<text text-anchor="middle" x="827" y="-149" font-family="Vera Sans, DejaVu Sans, Liberation Sans, Arial, Helvetica, sans" font-size="10.00">Selectable</text>
</a>
</g>
</g>
<!-- Selectable&#45;&gt;FromClause -->
<g id="edge35" class="edge">
<title>Selectable&#45;&gt;FromClause</title>
<path fill="none" stroke="black" stroke-width="0.5" d="M858.25,-151.5C879.16,-151.5 907.18,-151.5 929.81,-151.5"/>
<polygon fill="black" stroke="black" stroke-width="0.5" points="929.84,-153.25 934.84,-151.5 929.84,-149.75 929.84,-153.25"/>
</g>
<!-- FromClauseRole&#45;&gt;StrictFromClauseRole -->
<g id="edge59" class="edge">
<title>FromClauseRole&#45;&gt;StrictFromClauseRole</title>
<path fill="none" stroke="black" stroke-width="0.5" d="M547.15,-285.49C563.81,-283.59 583.07,-281.41 600.97,-279.37"/>
<polygon fill="black" stroke="black" stroke-width="0.5" points="601.21,-281.11 605.98,-278.8 600.82,-277.63 601.21,-281.11"/>
</g>
<!-- JoinTargetRole&#45;&gt;FromClauseRole -->
<g id="edge37" class="edge">
<title>JoinTargetRole&#45;&gt;FromClauseRole</title>
<path fill="none" stroke="black" stroke-width="0.5" d="M365.35,-356.5C376.13,-353.84 387.66,-350.51 398,-346.5 428.7,-334.6 461.73,-315.38 481.88,-302.84"/>
<polygon fill="black" stroke="black" stroke-width="0.5" points="482.92,-304.25 486.23,-300.12 481.06,-301.29 482.92,-304.25"/>
</g>
<!-- utcnow -->
<g id="node43" class="node">
<title>utcnow</title>
<g id="a_node43"><a xlink:href="../api/tollan.utils.db.conventions.utcnow.html#tollan.utils.db.conventions.utcnow" xlink:title="utcnow" target="_top">
<polygon fill="white" stroke="black" stroke-width="0.5" points="1221,-114 1167,-114 1167,-95 1221,-95 1221,-114"/>
<text text-anchor="middle" x="1194" y="-102" font-family="Vera Sans, DejaVu Sans, Liberation Sans, Arial, Helvetica, sans" font-size="10.00">utcnow</text>
</a>
</g>
</g>
<!-- FunctionElement&#45;&gt;utcnow -->
<g id="edge63" class="edge">
<title>FunctionElement&#45;&gt;utcnow</title>
<path fill="none" stroke="black" stroke-width="0.5" d="M1131.03,-104.5C1141.3,-104.5 1152.04,-104.5 1161.63,-104.5"/>
<polygon fill="black" stroke="black" stroke-width="0.5" points="1161.83,-106.25 1166.83,-104.5 1161.83,-102.75 1161.83,-106.25"/>
</g>
<!-- HasMemoized -->
<g id="node37" class="node">
<title>HasMemoized</title>
<g id="a_node37"><a xlink:title="A class that maintains the names of memoized elements in a">
<polygon fill="white" stroke="black" stroke-width="0.5" points="193,-114 113,-114 113,-95 193,-95 193,-114"/>
<text text-anchor="middle" x="153" y="-102" font-family="Vera Sans, DejaVu Sans, Liberation Sans, Arial, Helvetica, sans" font-size="10.00">HasMemoized</text>
</a>
</g>
</g>
<!-- HasMemoized&#45;&gt;MemoizedHasCacheKey -->
<g id="edge48" class="edge">
<title>HasMemoized&#45;&gt;MemoizedHasCacheKey</title>
<path fill="none" stroke="black" stroke-width="0.5" d="M167.69,-114.11C185.77,-126.43 218.96,-147.69 250,-160.5 257.42,-163.56 265.47,-166.25 273.42,-168.56"/>
<polygon fill="black" stroke="black" stroke-width="0.5" points="273.07,-170.28 278.36,-169.95 274.02,-166.91 273.07,-170.28"/>
</g>
<!-- HasMemoized&#45;&gt;Generative -->
<g id="edge42" class="edge">
<title>HasMemoized&#45;&gt;Generative</title>
<path fill="none" stroke="black" stroke-width="0.5" d="M175.4,-94.87C206.39,-80.94 263.67,-55.18 297.03,-40.18"/>
<polygon fill="black" stroke="black" stroke-width="0.5" points="297.93,-41.69 301.77,-38.05 296.49,-38.5 297.93,-41.69"/>
</g>
<!-- HasCacheKey -->
<g id="node38" class="node">
<title>HasCacheKey</title>
<polygon fill="white" stroke="black" stroke-width="0.5" points="193,-190 113,-190 113,-171 193,-171 193,-190"/>
<text text-anchor="middle" x="153" y="-178" font-family="Vera Sans, DejaVu Sans, Liberation Sans, Arial, Helvetica, sans" font-size="10.00">HasCacheKey</text>
</g>
<!-- HasCacheKey&#45;&gt;MemoizedHasCacheKey -->
<g id="edge47" class="edge">
<title>HasCacheKey&#45;&gt;MemoizedHasCacheKey</title>
<path fill="none" stroke="black" stroke-width="0.5" d="M193.2,-180.27C211.88,-180.16 234.77,-180.02 256.09,-179.9"/>
<polygon fill="black" stroke="black" stroke-width="0.5" points="256.19,-181.65 261.18,-179.87 256.17,-178.15 256.19,-181.65"/>
</g>
<!-- OnClauseRole&#45;&gt;WhereHavingRole -->
<g id="edge62" class="edge">
<title>OnClauseRole&#45;&gt;WhereHavingRole</title>
<path fill="none" stroke="black" stroke-width="0.5" d="M364.06,-440.5C389.04,-440.5 421.73,-440.5 448.91,-440.5"/>
<polygon fill="black" stroke="black" stroke-width="0.5" points="448.91,-442.25 453.91,-440.5 448.91,-438.75 448.91,-442.25"/>
</g>
<!-- ReturnsRows&#45;&gt;Selectable -->
<g id="edge56" class="edge">
<title>ReturnsRows&#45;&gt;Selectable</title>
<path fill="none" stroke="black" stroke-width="0.5" d="M701.19,-151.5C728.17,-151.5 764.26,-151.5 790.69,-151.5"/>
<polygon fill="black" stroke="black" stroke-width="0.5" points="790.84,-153.25 795.84,-151.5 790.84,-149.75 790.84,-153.25"/>
</g>
<!-- ReturnsRowsRole&#45;&gt;ReturnsRows -->
<g id="edge53" class="edge">
<title>ReturnsRowsRole&#45;&gt;ReturnsRows</title>
<path fill="none" stroke="black" stroke-width="0.5" d="M550.56,-131.9C572.25,-135.73 597.74,-140.24 618.81,-143.96"/>
<polygon fill="black" stroke="black" stroke-width="0.5" points="618.56,-145.69 623.79,-144.84 619.17,-142.25 618.56,-145.69"/>
</g>
<!-- SupportsAnnotations -->
<g id="node42" class="node">
<title>SupportsAnnotations</title>
<polygon fill="white" stroke="black" stroke-width="0.5" points="206.5,-227 99.5,-227 99.5,-208 206.5,-208 206.5,-227"/>
<text text-anchor="middle" x="153" y="-215" font-family="Vera Sans, DejaVu Sans, Liberation Sans, Arial, Helvetica, sans" font-size="10.00">SupportsAnnotations</text>
</g>
<!-- SupportsAnnotations&#45;&gt;SupportsWrappingAnnotations -->
<g id="edge61" class="edge">
<title>SupportsAnnotations&#45;&gt;SupportsWrappingAnnotations</title>
<path fill="none" stroke="black" stroke-width="0.5" d="M206.55,-217.19C218.61,-217.12 231.69,-217.04 244.58,-216.96"/>
<polygon fill="black" stroke="black" stroke-width="0.5" points="244.71,-218.71 249.7,-216.93 244.69,-215.21 244.71,-218.71"/>
</g>
</g>
</svg>
