<?xml version="1.0" encoding="UTF-8" standalone="no"?>
<!DOCTYPE svg PUBLIC "-//W3C//DTD SVG 1.1//EN"
 "http://www.w3.org/Graphics/SVG/1.1/DTD/svg11.dtd">
<!-- Generated by graphviz version 2.42.3 (20191010.1750)
 -->
<!-- Title: inheritance416da0d9be Pages: 1 -->
<svg width="223pt" height="80pt"
 viewBox="0.00 0.00 223.32 80.00" xmlns="http://www.w3.org/2000/svg" xmlns:xlink="http://www.w3.org/1999/xlink">
<g id="graph0" class="graph" transform="scale(1 1) rotate(0) translate(4 76)">
<title>inheritance416da0d9be</title>
<!-- BoundedSliceChain -->
<g id="node1" class="node">
<title>BoundedSliceChain</title>
<g id="a_node1"><a xlink:href="../api/tollan.utils.slice.BoundedSliceChain.html#tollan.utils.slice.BoundedSliceChain" xlink:title="A chain of slices, with known array size." target="_top">
<polygon fill="white" stroke="black" stroke-width="0.5" points="209.4,-54 105.72,-54 105.72,-36 209.4,-36 209.4,-54"/>
<text text-anchor="middle" x="157.56" y="-42" font-family="Vera Sans, DejaVu Sans, Liberation Sans, Arial, Helvetica, sans" font-size="10.00">BoundedSliceChain</text>
</a>
</g>
</g>
<!-- SliceChain -->
<g id="node2" class="node">
<title>SliceChain</title>
<polygon fill="white" stroke="black" stroke-width="0.5" points="63.7,-36 0.1,-36 0.1,-18 63.7,-18 63.7,-36"/>
<text text-anchor="middle" x="31.9" y="-24" font-family="Vera Sans, DejaVu Sans, Liberation Sans, Arial, Helvetica, sans" font-size="10.00">SliceChain</text>
</g>
<!-- SliceChain&#45;&gt;BoundedSliceChain -->
<g id="edge1" class="edge">
<title>SliceChain&#45;&gt;BoundedSliceChain</title>
<path fill="none" stroke="black" stroke-width="0.5" d="M63.79,-31.5C74.9,-33.11 87.81,-34.99 100.41,-36.83"/>
<polygon fill="black" stroke="black" stroke-width="0.5" points="100.2,-38.57 105.4,-37.55 100.71,-35.1 100.2,-38.57"/>
</g>
<!-- UnboundedSliceChain -->
<g id="node3" class="node">
<title>UnboundedSliceChain</title>
<g id="a_node3"><a xlink:href="../api/tollan.utils.slice.UnboundedSliceChain.html#tollan.utils.slice.UnboundedSliceChain" xlink:title="A chain of slices." target="_top">
<polygon fill="white" stroke="black" stroke-width="0.5" points="215.08,-18 100.04,-18 100.04,0 215.08,0 215.08,-18"/>
<text text-anchor="middle" x="157.56" y="-6" font-family="Vera Sans, DejaVu Sans, Liberation Sans, Arial, Helvetica, sans" font-size="10.00">UnboundedSliceChain</text>
</a>
</g>
</g>
<!-- SliceChain&#45;&gt;UnboundedSliceChain -->
<g id="edge2" class="edge">
<title>SliceChain&#45;&gt;UnboundedSliceChain</title>
<path fill="none" stroke="black" stroke-width="0.5" d="M63.79,-22.5C73.13,-21.14 83.75,-19.6 94.38,-18.05"/>
<polygon fill="black" stroke="black" stroke-width="0.5" points="94.89,-19.74 99.59,-17.29 94.39,-16.28 94.89,-19.74"/>
</g>
<!-- XLoc -->
<g id="node4" class="node">
<title>XLoc</title>
<g id="a_node4"><a xlink:href="../api/tollan.utils.slice.XLoc.html#tollan.utils.slice.XLoc" xlink:title="This provides a interface similar to that of pandas `DataFrame.xloc`." target="_top">
<polygon fill="white" stroke="black" stroke-width="0.5" points="58.9,-72 4.9,-72 4.9,-54 58.9,-54 58.9,-72"/>
<text text-anchor="middle" x="31.9" y="-60" font-family="Vera Sans, DejaVu Sans, Liberation Sans, Arial, Helvetica, sans" font-size="10.00">XLoc</text>
</a>
</g>
</g>
</g>
</svg>
