<?xml version="1.0" encoding="UTF-8" standalone="no"?>
<!DOCTYPE svg PUBLIC "-//W3C//DTD SVG 1.1//EN"
 "http://www.w3.org/Graphics/SVG/1.1/DTD/svg11.dtd">
<!-- Generated by graphviz version 2.47.1 (20210417.1919)
 -->
<!-- Title: inheritance66a5a39ad9 Pages: 1 -->
<svg width="246pt" height="138pt"
 viewBox="0.00 0.00 246.00 138.00" xmlns="http://www.w3.org/2000/svg" xmlns:xlink="http://www.w3.org/1999/xlink">
<g id="graph0" class="graph" transform="scale(1 1) rotate(0) translate(4 134)">
<title>inheritance66a5a39ad9</title>
<!-- Namespace -->
<g id="node1" class="node">
<title>Namespace</title>
<g id="a_node1"><a xlink:href="../api/tollan.utils.namespace.Namespace.html#tollan.utils.namespace.Namespace" xlink:title="A convenient class that manages a set of attributes." target="_top">
<polygon fill="white" stroke="black" stroke-width="0.5" points="238,-37 169,-37 169,-18 238,-18 238,-37"/>
<text text-anchor="middle" x="203.5" y="-25" font-family="Vera Sans, DejaVu Sans, Liberation Sans, Arial, Helvetica, sans" font-size="10.00">Namespace</text>
</a>
</g>
</g>
<!-- NamespaceMixin -->
<g id="node2" class="node">
<title>NamespaceMixin</title>
<g id="a_node2"><a xlink:title="A mixin class that allows converting object to and from dict.">
<polygon fill="white" stroke="black" stroke-width="0.5" points="112.5,-56 20.5,-56 20.5,-37 112.5,-37 112.5,-56"/>
<text text-anchor="middle" x="66.5" y="-44" font-family="Vera Sans, DejaVu Sans, Liberation Sans, Arial, Helvetica, sans" font-size="10.00">NamespaceMixin</text>
</a>
</g>
</g>
<!-- NamespaceMixin&#45;&gt;Namespace -->
<g id="edge1" class="edge">
<title>NamespaceMixin&#45;&gt;Namespace</title>
<path fill="none" stroke="black" stroke-width="0.5" d="M112.83,-40.12C129.21,-37.82 147.55,-35.23 163.35,-33.01"/>
<polygon fill="black" stroke="black" stroke-width="0.5" points="163.9,-34.7 168.61,-32.27 163.41,-31.23 163.9,-34.7"/>
</g>
<!-- SimpleNamespace -->
<g id="node3" class="node">
<title>SimpleNamespace</title>
<g id="a_node3"><a xlink:title="A simple attribute&#45;based namespace.">
<polygon fill="white" stroke="black" stroke-width="0.5" points="116,-19 17,-19 17,0 116,0 116,-19"/>
<text text-anchor="middle" x="66.5" y="-7" font-family="Vera Sans, DejaVu Sans, Liberation Sans, Arial, Helvetica, sans" font-size="10.00">SimpleNamespace</text>
</a>
</g>
</g>
<!-- SimpleNamespace&#45;&gt;Namespace -->
<g id="edge2" class="edge">
<title>SimpleNamespace&#45;&gt;Namespace</title>
<path fill="none" stroke="black" stroke-width="0.5" d="M116.24,-16C131.71,-18.06 148.61,-20.31 163.32,-22.28"/>
<polygon fill="black" stroke="black" stroke-width="0.5" points="163.44,-24.06 168.63,-22.98 163.9,-20.59 163.44,-24.06"/>
</g>
<!-- NamespaceNotFoundError -->
<g id="node4" class="node">
<title>NamespaceNotFoundError</title>
<g id="a_node4"><a xlink:href="../api/tollan.utils.namespace.NamespaceNotFoundError.html#tollan.utils.namespace.NamespaceNotFoundError" xlink:title="NamespaceNotFoundError" target="_top">
<polygon fill="white" stroke="black" stroke-width="0.5" points="133,-93 0,-93 0,-74 133,-74 133,-93"/>
<text text-anchor="middle" x="66.5" y="-81" font-family="Vera Sans, DejaVu Sans, Liberation Sans, Arial, Helvetica, sans" font-size="10.00">NamespaceNotFoundError</text>
</a>
</g>
</g>
<!-- NamespaceTypeError -->
<g id="node5" class="node">
<title>NamespaceTypeError</title>
<g id="a_node5"><a xlink:href="../api/tollan.utils.namespace.NamespaceTypeError.html#tollan.utils.namespace.NamespaceTypeError" xlink:title="NamespaceTypeError" target="_top">
<polygon fill="white" stroke="black" stroke-width="0.5" points="122,-130 11,-130 11,-111 122,-111 122,-130"/>
<text text-anchor="middle" x="66.5" y="-118" font-family="Vera Sans, DejaVu Sans, Liberation Sans, Arial, Helvetica, sans" font-size="10.00">NamespaceTypeError</text>
</a>
</g>
</g>
</g>
</svg>
