<?xml version="1.0" encoding="UTF-8" standalone="no"?>
<!DOCTYPE svg PUBLIC "-//W3C//DTD SVG 1.1//EN"
 "http://www.w3.org/Graphics/SVG/1.1/DTD/svg11.dtd">
<!-- Generated by graphviz version 2.42.3 (20191010.1750)
 -->
<!-- Title: inheritance5a22c65c55 Pages: 1 -->
<svg width="306pt" height="98pt"
 viewBox="0.00 0.00 306.42 98.00" xmlns="http://www.w3.org/2000/svg" xmlns:xlink="http://www.w3.org/1999/xlink">
<g id="graph0" class="graph" transform="scale(1 1) rotate(0) translate(4 94)">
<title>inheritance5a22c65c55</title>
<!-- Namespace -->
<g id="node1" class="node">
<title>Namespace</title>
<g id="a_node1"><a xlink:href="../api/tollan.utils.namespace.Namespace.html#tollan.utils.namespace.Namespace" xlink:title="A convenient class that manages a set of attributes." target="_top">
<polygon fill="white" stroke="black" stroke-width="0.5" points="206.3,-36 136.58,-36 136.58,-18 206.3,-18 206.3,-36"/>
<text text-anchor="middle" x="171.44" y="-24" font-family="Vera Sans, DejaVu Sans, Liberation Sans, Arial, Helvetica, sans" font-size="10.00">Namespace</text>
</a>
</g>
</g>
<!-- SqlaDB -->
<g id="node5" class="node">
<title>SqlaDB</title>
<g id="a_node5"><a xlink:href="../api/tollan.utils.db.SqlaDB.html#tollan.utils.db.SqlaDB" xlink:title="A class that provide access to database related entities" target="_top">
<polygon fill="white" stroke="black" stroke-width="0.5" points="297.69,-54 243.69,-54 243.69,-36 297.69,-36 297.69,-54"/>
<text text-anchor="middle" x="270.69" y="-42" font-family="Vera Sans, DejaVu Sans, Liberation Sans, Arial, Helvetica, sans" font-size="10.00">SqlaDB</text>
</a>
</g>
</g>
<!-- Namespace&#45;&gt;SqlaDB -->
<g id="edge3" class="edge">
<title>Namespace&#45;&gt;SqlaDB</title>
<path fill="none" stroke="black" stroke-width="0.5" d="M206.18,-33.25C216.74,-35.2 228.34,-37.35 238.7,-39.26"/>
<polygon fill="black" stroke="black" stroke-width="0.5" points="238.44,-41 243.68,-40.19 239.08,-37.55 238.44,-41"/>
</g>
<!-- TableDef -->
<g id="node6" class="node">
<title>TableDef</title>
<g id="a_node6"><a xlink:href="../api/tollan.utils.db.TableDef.html#tollan.utils.db.TableDef" xlink:title="A class that holds definitions to a table." target="_top">
<polygon fill="white" stroke="black" stroke-width="0.5" points="298.66,-18 242.72,-18 242.72,0 298.66,0 298.66,-18"/>
<text text-anchor="middle" x="270.69" y="-6" font-family="Vera Sans, DejaVu Sans, Liberation Sans, Arial, Helvetica, sans" font-size="10.00">TableDef</text>
</a>
</g>
</g>
<!-- Namespace&#45;&gt;TableDef -->
<g id="edge4" class="edge">
<title>Namespace&#45;&gt;TableDef</title>
<path fill="none" stroke="black" stroke-width="0.5" d="M206.18,-20.75C216.36,-18.87 227.51,-16.81 237.59,-14.94"/>
<polygon fill="black" stroke="black" stroke-width="0.5" points="238.15,-16.62 242.75,-13.99 237.51,-13.18 238.15,-16.62"/>
</g>
<!-- NamespaceMixin -->
<g id="node2" class="node">
<title>NamespaceMixin</title>
<g id="a_node2"><a xlink:title="A mixin class that allows converting object to and from dict.">
<polygon fill="white" stroke="black" stroke-width="0.5" points="96.16,-54 3.77,-54 3.77,-36 96.16,-36 96.16,-54"/>
<text text-anchor="middle" x="49.96" y="-42" font-family="Vera Sans, DejaVu Sans, Liberation Sans, Arial, Helvetica, sans" font-size="10.00">NamespaceMixin</text>
</a>
</g>
</g>
<!-- NamespaceMixin&#45;&gt;Namespace -->
<g id="edge1" class="edge">
<title>NamespaceMixin&#45;&gt;Namespace</title>
<path fill="none" stroke="black" stroke-width="0.5" d="M96.47,-38.14C108.02,-36.4 120.33,-34.55 131.52,-32.86"/>
<polygon fill="black" stroke="black" stroke-width="0.5" points="131.9,-34.58 136.58,-32.1 131.37,-31.12 131.9,-34.58"/>
</g>
<!-- SimpleNamespace -->
<g id="node3" class="node">
<title>SimpleNamespace</title>
<g id="a_node3"><a xlink:title="A simple attribute&#45;based namespace.">
<polygon fill="white" stroke="black" stroke-width="0.5" points="99.89,-18 0.04,-18 0.04,0 99.89,0 99.89,-18"/>
<text text-anchor="middle" x="49.96" y="-6" font-family="Vera Sans, DejaVu Sans, Liberation Sans, Arial, Helvetica, sans" font-size="10.00">SimpleNamespace</text>
</a>
</g>
</g>
<!-- SimpleNamespace&#45;&gt;Namespace -->
<g id="edge2" class="edge">
<title>SimpleNamespace&#45;&gt;Namespace</title>
<path fill="none" stroke="black" stroke-width="0.5" d="M99.9,-16.37C110.44,-17.96 121.44,-19.62 131.53,-21.14"/>
<polygon fill="black" stroke="black" stroke-width="0.5" points="131.52,-22.91 136.72,-21.92 132.04,-19.44 131.52,-22.91"/>
</g>
<!-- ObjectProxy -->
<g id="node4" class="node">
<title>ObjectProxy</title>
<polygon fill="white" stroke="black" stroke-width="0.5" points="85.43,-90 14.5,-90 14.5,-72 85.43,-72 85.43,-90"/>
<text text-anchor="middle" x="49.96" y="-78" font-family="Vera Sans, DejaVu Sans, Liberation Sans, Arial, Helvetica, sans" font-size="10.00">ObjectProxy</text>
</g>
<!-- TableDefList -->
<g id="node7" class="node">
<title>TableDefList</title>
<g id="a_node7"><a xlink:href="../api/tollan.utils.db.TableDefList.html#tollan.utils.db.TableDefList" xlink:title="TableDefList" target="_top">
<polygon fill="white" stroke="black" stroke-width="0.5" points="206.97,-90 135.91,-90 135.91,-72 206.97,-72 206.97,-90"/>
<text text-anchor="middle" x="171.44" y="-78" font-family="Vera Sans, DejaVu Sans, Liberation Sans, Arial, Helvetica, sans" font-size="10.00">TableDefList</text>
</a>
</g>
</g>
<!-- ObjectProxy&#45;&gt;TableDefList -->
<g id="edge5" class="edge">
<title>ObjectProxy&#45;&gt;TableDefList</title>
<path fill="none" stroke="black" stroke-width="0.5" d="M85.2,-81C99.33,-81 115.79,-81 130.47,-81"/>
<polygon fill="black" stroke="black" stroke-width="0.5" points="130.78,-82.75 135.78,-81 130.78,-79.25 130.78,-82.75"/>
</g>
</g>
</svg>
