<?xml version="1.0" encoding="UTF-8" standalone="no"?>
<!DOCTYPE svg PUBLIC "-//W3C//DTD SVG 1.1//EN"
 "http://www.w3.org/Graphics/SVG/1.1/DTD/svg11.dtd">
<!-- Generated by graphviz version 2.42.3 (20191010.1750)
 -->
<!-- Title: inheritance8898b224ff Pages: 1 -->
<svg width="576pt" height="89pt"
 viewBox="0.00 0.00 576.00 89.16" xmlns="http://www.w3.org/2000/svg" xmlns:xlink="http://www.w3.org/1999/xlink">
<g id="graph0" class="graph" transform="scale(1.12 1.12) rotate(0) translate(4 96)">
<title>inheritance8898b224ff</title>
<!-- ClauseElement -->
<g id="node1" class="node">
<title>ClauseElement</title>
<g id="a_node1"><a xlink:title="Base class for elements of a programmatically constructed SQL">
<polygon fill="white" stroke="black" stroke-width="0.5" points="185.74,-18 102.11,-18 102.11,0 185.74,0 185.74,-18"/>
<text text-anchor="middle" x="143.92" y="-6" font-family="Vera Sans, DejaVu Sans, Liberation Sans, Arial, Helvetica, sans" font-size="10.00">ClauseElement</text>
</a>
</g>
</g>
<!-- ColumnElement -->
<g id="node3" class="node">
<title>ColumnElement</title>
<g id="a_node3"><a xlink:title="Represent a column&#45;oriented SQL expression suitable for usage in the">
<polygon fill="white" stroke="black" stroke-width="0.5" points="314.6,-55 227.31,-55 227.31,-37 314.6,-37 314.6,-55"/>
<text text-anchor="middle" x="270.96" y="-43" font-family="Vera Sans, DejaVu Sans, Liberation Sans, Arial, Helvetica, sans" font-size="10.00">ColumnElement</text>
</a>
</g>
</g>
<!-- ClauseElement&#45;&gt;ColumnElement -->
<g id="edge3" class="edge">
<title>ClauseElement&#45;&gt;ColumnElement</title>
<path fill="none" stroke="black" stroke-width="0.5" d="M175.51,-18.05C193.22,-23.29 215.6,-29.92 234.13,-35.4"/>
<polygon fill="black" stroke="black" stroke-width="0.5" points="233.96,-37.17 239.25,-36.91 234.95,-33.82 233.96,-37.17"/>
</g>
<!-- Selectable -->
<g id="node9" class="node">
<title>Selectable</title>
<g id="a_node9"><a xlink:title="mark a class as being selectable">
<polygon fill="white" stroke="black" stroke-width="0.5" points="302.16,-18 239.76,-18 239.76,0 302.16,0 302.16,-18"/>
<text text-anchor="middle" x="270.96" y="-6" font-family="Vera Sans, DejaVu Sans, Liberation Sans, Arial, Helvetica, sans" font-size="10.00">Selectable</text>
</a>
</g>
</g>
<!-- ClauseElement&#45;&gt;Selectable -->
<g id="edge10" class="edge">
<title>ClauseElement&#45;&gt;Selectable</title>
<path fill="none" stroke="black" stroke-width="0.5" d="M185.86,-9C201.6,-9 219.42,-9 234.6,-9"/>
<polygon fill="black" stroke="black" stroke-width="0.5" points="234.63,-10.75 239.63,-9 234.63,-7.25 234.63,-10.75"/>
</g>
<!-- Visitable -->
<g id="node2" class="node">
<title>Visitable</title>
<g id="a_node2"><a xlink:title="Base class for visitable objects, applies the">
<polygon fill="white" stroke="black" stroke-width="0.5" points="57.23,-18 3.23,-18 3.23,0 57.23,0 57.23,-18"/>
<text text-anchor="middle" x="30.23" y="-6" font-family="Vera Sans, DejaVu Sans, Liberation Sans, Arial, Helvetica, sans" font-size="10.00">Visitable</text>
</a>
</g>
</g>
<!-- Visitable&#45;&gt;ClauseElement -->
<g id="edge1" class="edge">
<title>Visitable&#45;&gt;ClauseElement</title>
<path fill="none" stroke="black" stroke-width="0.5" d="M57.42,-9C69.14,-9 83.33,-9 96.74,-9"/>
<polygon fill="black" stroke="black" stroke-width="0.5" points="97.04,-10.75 102.04,-9 97.04,-7.25 97.04,-10.75"/>
</g>
<!-- FunctionElement -->
<g id="node10" class="node">
<title>FunctionElement</title>
<g id="a_node10"><a xlink:title="Base for SQL function&#45;oriented constructs.">
<polygon fill="white" stroke="black" stroke-width="0.5" points="548.04,-55 456.96,-55 456.96,-37 548.04,-37 548.04,-55"/>
<text text-anchor="middle" x="502.5" y="-43" font-family="Vera Sans, DejaVu Sans, Liberation Sans, Arial, Helvetica, sans" font-size="10.00">FunctionElement</text>
</a>
</g>
</g>
<!-- ColumnElement&#45;&gt;FunctionElement -->
<g id="edge8" class="edge">
<title>ColumnElement&#45;&gt;FunctionElement</title>
<path fill="none" stroke="black" stroke-width="0.5" d="M314.59,-46C353.31,-46 410.44,-46 451.33,-46"/>
<polygon fill="black" stroke="black" stroke-width="0.5" points="451.74,-47.75 456.74,-46 451.74,-44.25 451.74,-47.75"/>
</g>
<!-- ColumnOperators -->
<g id="node4" class="node">
<title>ColumnOperators</title>
<g id="a_node4"><a xlink:title="Defines boolean, comparison, and other operators for">
<polygon fill="white" stroke="black" stroke-width="0.5" points="191.34,-55 96.5,-55 96.5,-37 191.34,-37 191.34,-55"/>
<text text-anchor="middle" x="143.92" y="-43" font-family="Vera Sans, DejaVu Sans, Liberation Sans, Arial, Helvetica, sans" font-size="10.00">ColumnOperators</text>
</a>
</g>
</g>
<!-- ColumnOperators&#45;&gt;ColumnElement -->
<g id="edge2" class="edge">
<title>ColumnOperators&#45;&gt;ColumnElement</title>
<path fill="none" stroke="black" stroke-width="0.5" d="M191.48,-46C201.41,-46 211.92,-46 221.91,-46"/>
<polygon fill="black" stroke="black" stroke-width="0.5" points="222.08,-47.75 227.08,-46 222.08,-44.25 222.08,-47.75"/>
</g>
<!-- Operators -->
<g id="node5" class="node">
<title>Operators</title>
<g id="a_node5"><a xlink:title="Base of comparison and logical operators.">
<polygon fill="white" stroke="black" stroke-width="0.5" points="60.7,-55 -0.23,-55 -0.23,-37 60.7,-37 60.7,-55"/>
<text text-anchor="middle" x="30.23" y="-43" font-family="Vera Sans, DejaVu Sans, Liberation Sans, Arial, Helvetica, sans" font-size="10.00">Operators</text>
</a>
</g>
</g>
<!-- Operators&#45;&gt;ColumnOperators -->
<g id="edge4" class="edge">
<title>Operators&#45;&gt;ColumnOperators</title>
<path fill="none" stroke="black" stroke-width="0.5" d="M60.58,-46C70.02,-46 80.78,-46 91.33,-46"/>
<polygon fill="black" stroke="black" stroke-width="0.5" points="91.49,-47.75 96.49,-46 91.49,-44.25 91.49,-47.75"/>
</g>
<!-- Executable -->
<g id="node6" class="node">
<title>Executable</title>
<g id="a_node6"><a xlink:title="Mark a ClauseElement as supporting execution.">
<polygon fill="white" stroke="black" stroke-width="0.5" points="418.73,-92 352.78,-92 352.78,-74 418.73,-74 418.73,-92"/>
<text text-anchor="middle" x="385.76" y="-80" font-family="Vera Sans, DejaVu Sans, Liberation Sans, Arial, Helvetica, sans" font-size="10.00">Executable</text>
</a>
</g>
</g>
<!-- Executable&#45;&gt;FunctionElement -->
<g id="edge7" class="edge">
<title>Executable&#45;&gt;FunctionElement</title>
<path fill="none" stroke="black" stroke-width="0.5" d="M414.83,-73.95C430.94,-68.75 451.27,-62.2 468.19,-56.74"/>
<polygon fill="black" stroke="black" stroke-width="0.5" points="469.1,-58.29 473.33,-55.09 468.03,-54.95 469.1,-58.29"/>
</g>
<!-- Generative -->
<g id="node7" class="node">
<title>Generative</title>
<g id="a_node7"><a xlink:title="Allow a ClauseElement to generate itself via the">
<polygon fill="white" stroke="black" stroke-width="0.5" points="303.37,-92 238.54,-92 238.54,-74 303.37,-74 303.37,-92"/>
<text text-anchor="middle" x="270.96" y="-80" font-family="Vera Sans, DejaVu Sans, Liberation Sans, Arial, Helvetica, sans" font-size="10.00">Generative</text>
</a>
</g>
</g>
<!-- Generative&#45;&gt;Executable -->
<g id="edge5" class="edge">
<title>Generative&#45;&gt;Executable</title>
<path fill="none" stroke="black" stroke-width="0.5" d="M303.38,-83C317.08,-83 333.24,-83 347.54,-83"/>
<polygon fill="black" stroke="black" stroke-width="0.5" points="347.72,-84.75 352.72,-83 347.72,-81.25 347.72,-84.75"/>
</g>
<!-- FromClause -->
<g id="node8" class="node">
<title>FromClause</title>
<g id="a_node8"><a xlink:title="Represent an element that can be used within the ``FROM``">
<polygon fill="white" stroke="black" stroke-width="0.5" points="421.21,-18 350.3,-18 350.3,0 421.21,0 421.21,-18"/>
<text text-anchor="middle" x="385.76" y="-6" font-family="Vera Sans, DejaVu Sans, Liberation Sans, Arial, Helvetica, sans" font-size="10.00">FromClause</text>
</a>
</g>
</g>
<!-- FromClause&#45;&gt;FunctionElement -->
<g id="edge9" class="edge">
<title>FromClause&#45;&gt;FunctionElement</title>
<path fill="none" stroke="black" stroke-width="0.5" d="M414.83,-18.05C430.94,-23.25 451.27,-29.8 468.19,-35.26"/>
<polygon fill="black" stroke="black" stroke-width="0.5" points="468.03,-37.05 473.33,-36.91 469.1,-33.71 468.03,-37.05"/>
</g>
<!-- Selectable&#45;&gt;FromClause -->
<g id="edge6" class="edge">
<title>Selectable&#45;&gt;FromClause</title>
<path fill="none" stroke="black" stroke-width="0.5" d="M302.18,-9C315.44,-9 331.16,-9 345.32,-9"/>
<polygon fill="black" stroke="black" stroke-width="0.5" points="345.46,-10.75 350.46,-9 345.46,-7.25 345.46,-10.75"/>
</g>
<!-- utcnow -->
<g id="node11" class="node">
<title>utcnow</title>
<g id="a_node11"><a xlink:href="../api/tollan.utils.db.conventions.utcnow.html#tollan.utils.db.conventions.utcnow" xlink:title="utcnow" target="_top">
<polygon fill="white" stroke="black" stroke-width="0.5" points="638.02,-55 584.02,-55 584.02,-37 638.02,-37 638.02,-55"/>
<text text-anchor="middle" x="611.02" y="-43" font-family="Vera Sans, DejaVu Sans, Liberation Sans, Arial, Helvetica, sans" font-size="10.00">utcnow</text>
</a>
</g>
</g>
<!-- FunctionElement&#45;&gt;utcnow -->
<g id="edge11" class="edge">
<title>FunctionElement&#45;&gt;utcnow</title>
<path fill="none" stroke="black" stroke-width="0.5" d="M548.06,-46C558.35,-46 569.09,-46 578.68,-46"/>
<polygon fill="black" stroke="black" stroke-width="0.5" points="578.88,-47.75 583.88,-46 578.88,-44.25 578.88,-47.75"/>
</g>
</g>
</svg>
