<?xml version="1.0" encoding="UTF-8" standalone="no"?>
<!DOCTYPE svg PUBLIC "-//W3C//DTD SVG 1.1//EN"
 "http://www.w3.org/Graphics/SVG/1.1/DTD/svg11.dtd">
<!-- Generated by graphviz version 2.47.1 (20210417.1919)
 -->
<!-- Title: inheritance416da0d9be Pages: 1 -->
<svg width="221pt" height="82pt"
 viewBox="0.00 0.00 221.00 82.00" xmlns="http://www.w3.org/2000/svg" xmlns:xlink="http://www.w3.org/1999/xlink">
<g id="graph0" class="graph" transform="scale(1 1) rotate(0) translate(4 78)">
<title>inheritance416da0d9be</title>
<!-- BoundedSliceChain -->
<g id="node1" class="node">
<title>BoundedSliceChain</title>
<g id="a_node1"><a xlink:href="../api/tollan.utils.slice.BoundedSliceChain.html#tollan.utils.slice.BoundedSliceChain" xlink:title="A chain of slices, with known array size." target="_top">
<polygon fill="white" stroke="black" stroke-width="0.5" points="207.5,-56 105.5,-56 105.5,-37 207.5,-37 207.5,-56"/>
<text text-anchor="middle" x="156.5" y="-44" font-family="Vera Sans, DejaVu Sans, Liberation Sans, Arial, Helvetica, sans" font-size="10.00">BoundedSliceChain</text>
</a>
</g>
</g>
<!-- SliceChain -->
<g id="node2" class="node">
<title>SliceChain</title>
<polygon fill="white" stroke="black" stroke-width="0.5" points="64,-37 0,-37 0,-18 64,-18 64,-37"/>
<text text-anchor="middle" x="32" y="-25" font-family="Vera Sans, DejaVu Sans, Liberation Sans, Arial, Helvetica, sans" font-size="10.00">SliceChain</text>
</g>
<!-- SliceChain&#45;&gt;BoundedSliceChain -->
<g id="edge1" class="edge">
<title>SliceChain&#45;&gt;BoundedSliceChain</title>
<path fill="none" stroke="black" stroke-width="0.5" d="M64.23,-32.34C75.15,-34.04 87.75,-35.99 100.04,-37.9"/>
<polygon fill="black" stroke="black" stroke-width="0.5" points="100.08,-39.67 105.29,-38.71 100.62,-36.22 100.08,-39.67"/>
</g>
<!-- UnboundedSliceChain -->
<g id="node3" class="node">
<title>UnboundedSliceChain</title>
<g id="a_node3"><a xlink:href="../api/tollan.utils.slice.UnboundedSliceChain.html#tollan.utils.slice.UnboundedSliceChain" xlink:title="A chain of slices." target="_top">
<polygon fill="white" stroke="black" stroke-width="0.5" points="213,-19 100,-19 100,0 213,0 213,-19"/>
<text text-anchor="middle" x="156.5" y="-7" font-family="Vera Sans, DejaVu Sans, Liberation Sans, Arial, Helvetica, sans" font-size="10.00">UnboundedSliceChain</text>
</a>
</g>
</g>
<!-- SliceChain&#45;&gt;UnboundedSliceChain -->
<g id="edge2" class="edge">
<title>SliceChain&#45;&gt;UnboundedSliceChain</title>
<path fill="none" stroke="black" stroke-width="0.5" d="M64.23,-22.91C73.49,-21.55 83.96,-20.01 94.43,-18.47"/>
<polygon fill="black" stroke="black" stroke-width="0.5" points="94.87,-20.18 99.57,-17.72 94.36,-16.71 94.87,-20.18"/>
</g>
<!-- XLoc -->
<g id="node4" class="node">
<title>XLoc</title>
<g id="a_node4"><a xlink:href="../api/tollan.utils.slice.XLoc.html#tollan.utils.slice.XLoc" xlink:title="This provides a interface similar to that of pandas `DataFrame.xloc`." target="_top">
<polygon fill="white" stroke="black" stroke-width="0.5" points="59,-74 5,-74 5,-55 59,-55 59,-74"/>
<text text-anchor="middle" x="32" y="-62" font-family="Vera Sans, DejaVu Sans, Liberation Sans, Arial, Helvetica, sans" font-size="10.00">XLoc</text>
</a>
</g>
</g>
</g>
</svg>
