<?xml version="1.0" encoding="UTF-8" standalone="no"?>
<!DOCTYPE svg PUBLIC "-//W3C//DTD SVG 1.1//EN"
 "http://www.w3.org/Graphics/SVG/1.1/DTD/svg11.dtd">
<!-- Generated by graphviz version 2.47.1 (20210417.1919)
 -->
<!-- Title: inheritance4c8933d022 Pages: 1 -->
<svg width="282pt" height="64pt"
 viewBox="0.00 0.00 282.00 64.00" xmlns="http://www.w3.org/2000/svg" xmlns:xlink="http://www.w3.org/1999/xlink">
<g id="graph0" class="graph" transform="scale(1 1) rotate(0) translate(4 60)">
<title>inheritance4c8933d022</title>
<!-- EnvRegistry -->
<g id="node1" class="node">
<title>EnvRegistry</title>
<g id="a_node1"><a xlink:href="../api/tollan.utils.env.EnvRegistry.html#tollan.utils.env.EnvRegistry" xlink:title="A registry class that helps work with env vars." target="_top">
<polygon fill="white" stroke="black" stroke-width="0.5" points="274,-37 203,-37 203,-18 274,-18 274,-37"/>
<text text-anchor="middle" x="238.5" y="-25" font-family="Vera Sans, DejaVu Sans, Liberation Sans, Arial, Helvetica, sans" font-size="10.00">EnvRegistry</text>
</a>
</g>
</g>
<!-- Registry -->
<g id="node2" class="node">
<title>Registry</title>
<g id="a_node2"><a xlink:href="../api/tollan.utils.registry.Registry.html#tollan.utils.registry.Registry" xlink:title="Registry" target="_top">
<polygon fill="white" stroke="black" stroke-width="0.5" points="167,-37 113,-37 113,-18 167,-18 167,-37"/>
<text text-anchor="middle" x="140" y="-25" font-family="Vera Sans, DejaVu Sans, Liberation Sans, Arial, Helvetica, sans" font-size="10.00">Registry</text>
</a>
</g>
</g>
<!-- Registry&#45;&gt;EnvRegistry -->
<g id="edge1" class="edge">
<title>Registry&#45;&gt;EnvRegistry</title>
<path fill="none" stroke="black" stroke-width="0.5" d="M167.11,-27.5C176.52,-27.5 187.35,-27.5 197.66,-27.5"/>
<polygon fill="black" stroke="black" stroke-width="0.5" points="197.66,-29.25 202.66,-27.5 197.66,-25.75 197.66,-29.25"/>
</g>
<!-- ObjectProxy -->
<g id="node3" class="node">
<title>ObjectProxy</title>
<polygon fill="white" stroke="black" stroke-width="0.5" points="74,-56 3,-56 3,-37 74,-37 74,-56"/>
<text text-anchor="middle" x="38.5" y="-44" font-family="Vera Sans, DejaVu Sans, Liberation Sans, Arial, Helvetica, sans" font-size="10.00">ObjectProxy</text>
</g>
<!-- ObjectProxy&#45;&gt;Registry -->
<g id="edge2" class="edge">
<title>ObjectProxy&#45;&gt;Registry</title>
<path fill="none" stroke="black" stroke-width="0.5" d="M74.02,-39.91C84.92,-37.83 96.9,-35.54 107.58,-33.5"/>
<polygon fill="black" stroke="black" stroke-width="0.5" points="108.12,-35.18 112.7,-32.52 107.46,-31.74 108.12,-35.18"/>
</g>
<!-- RegistryMixin -->
<g id="node4" class="node">
<title>RegistryMixin</title>
<polygon fill="white" stroke="black" stroke-width="0.5" points="77,-19 0,-19 0,0 77,0 77,-19"/>
<text text-anchor="middle" x="38.5" y="-7" font-family="Vera Sans, DejaVu Sans, Liberation Sans, Arial, Helvetica, sans" font-size="10.00">RegistryMixin</text>
</g>
<!-- RegistryMixin&#45;&gt;Registry -->
<g id="edge3" class="edge">
<title>RegistryMixin&#45;&gt;Registry</title>
<path fill="none" stroke="black" stroke-width="0.5" d="M77.12,-16.31C87.24,-18.14 98.08,-20.1 107.81,-21.86"/>
<polygon fill="black" stroke="black" stroke-width="0.5" points="107.55,-23.59 112.78,-22.76 108.18,-20.15 107.55,-23.59"/>
</g>
</g>
</svg>
