<?xml version="1.0" encoding="UTF-8" standalone="no"?>
<!DOCTYPE svg PUBLIC "-//W3C//DTD SVG 1.1//EN"
 "http://www.w3.org/Graphics/SVG/1.1/DTD/svg11.dtd">
<!-- Generated by graphviz version 2.47.1 (20210417.1919)
 -->
<!-- Title: inheritance5a22c65c55 Pages: 1 -->
<svg width="306pt" height="101pt"
 viewBox="0.00 0.00 306.00 101.00" xmlns="http://www.w3.org/2000/svg" xmlns:xlink="http://www.w3.org/1999/xlink">
<g id="graph0" class="graph" transform="scale(1 1) rotate(0) translate(4 97)">
<title>inheritance5a22c65c55</title>
<!-- Namespace -->
<g id="node1" class="node">
<title>Namespace</title>
<g id="a_node1"><a xlink:href="../api/tollan.utils.namespace.Namespace.html#tollan.utils.namespace.Namespace" xlink:title="A convenient class that manages a set of attributes." target="_top">
<polygon fill="white" stroke="black" stroke-width="0.5" points="205,-37 136,-37 136,-18 205,-18 205,-37"/>
<text text-anchor="middle" x="170.5" y="-25" font-family="Vera Sans, DejaVu Sans, Liberation Sans, Arial, Helvetica, sans" font-size="10.00">Namespace</text>
</a>
</g>
</g>
<!-- SqlaDB -->
<g id="node5" class="node">
<title>SqlaDB</title>
<g id="a_node5"><a xlink:href="../api/tollan.utils.db.SqlaDB.html#tollan.utils.db.SqlaDB" xlink:title="A class that provide access to database related entities" target="_top">
<polygon fill="white" stroke="black" stroke-width="0.5" points="297,-56 243,-56 243,-37 297,-37 297,-56"/>
<text text-anchor="middle" x="270" y="-44" font-family="Vera Sans, DejaVu Sans, Liberation Sans, Arial, Helvetica, sans" font-size="10.00">SqlaDB</text>
</a>
</g>
</g>
<!-- Namespace&#45;&gt;SqlaDB -->
<g id="edge3" class="edge">
<title>Namespace&#45;&gt;SqlaDB</title>
<path fill="none" stroke="black" stroke-width="0.5" d="M205.05,-34.04C215.66,-36.11 227.33,-38.38 237.76,-40.41"/>
<polygon fill="black" stroke="black" stroke-width="0.5" points="237.53,-42.15 242.78,-41.39 238.2,-38.72 237.53,-42.15"/>
</g>
<!-- TableDef -->
<g id="node6" class="node">
<title>TableDef</title>
<g id="a_node6"><a xlink:href="../api/tollan.utils.db.TableDef.html#tollan.utils.db.TableDef" xlink:title="A class that holds definitions to a table." target="_top">
<polygon fill="white" stroke="black" stroke-width="0.5" points="298,-19 242,-19 242,0 298,0 298,-19"/>
<text text-anchor="middle" x="270" y="-7" font-family="Vera Sans, DejaVu Sans, Liberation Sans, Arial, Helvetica, sans" font-size="10.00">TableDef</text>
</a>
</g>
</g>
<!-- Namespace&#45;&gt;TableDef -->
<g id="edge4" class="edge">
<title>Namespace&#45;&gt;TableDef</title>
<path fill="none" stroke="black" stroke-width="0.5" d="M205.05,-21.31C215.37,-19.4 226.7,-17.31 236.92,-15.42"/>
<polygon fill="black" stroke="black" stroke-width="0.5" points="237.24,-17.14 241.84,-14.51 236.6,-13.7 237.24,-17.14"/>
</g>
<!-- NamespaceMixin -->
<g id="node2" class="node">
<title>NamespaceMixin</title>
<g id="a_node2"><a xlink:title="A mixin class that allows converting object to and from dict.">
<polygon fill="white" stroke="black" stroke-width="0.5" points="95.5,-56 3.5,-56 3.5,-37 95.5,-37 95.5,-56"/>
<text text-anchor="middle" x="49.5" y="-44" font-family="Vera Sans, DejaVu Sans, Liberation Sans, Arial, Helvetica, sans" font-size="10.00">NamespaceMixin</text>
</a>
</g>
</g>
<!-- NamespaceMixin&#45;&gt;Namespace -->
<g id="edge1" class="edge">
<title>NamespaceMixin&#45;&gt;Namespace</title>
<path fill="none" stroke="black" stroke-width="0.5" d="M95.83,-39.26C107.33,-37.43 119.59,-35.47 130.74,-33.69"/>
<polygon fill="black" stroke="black" stroke-width="0.5" points="131.11,-35.4 135.77,-32.88 130.56,-31.95 131.11,-35.4"/>
</g>
<!-- SimpleNamespace -->
<g id="node3" class="node">
<title>SimpleNamespace</title>
<g id="a_node3"><a xlink:title="A simple attribute&#45;based namespace.">
<polygon fill="white" stroke="black" stroke-width="0.5" points="99,-19 0,-19 0,0 99,0 99,-19"/>
<text text-anchor="middle" x="49.5" y="-7" font-family="Vera Sans, DejaVu Sans, Liberation Sans, Arial, Helvetica, sans" font-size="10.00">SimpleNamespace</text>
</a>
</g>
</g>
<!-- SimpleNamespace&#45;&gt;Namespace -->
<g id="edge2" class="edge">
<title>SimpleNamespace&#45;&gt;Namespace</title>
<path fill="none" stroke="black" stroke-width="0.5" d="M99.25,-16.87C109.74,-18.46 120.7,-20.12 130.75,-21.64"/>
<polygon fill="black" stroke="black" stroke-width="0.5" points="130.71,-23.4 135.92,-22.42 131.23,-19.94 130.71,-23.4"/>
</g>
<!-- ObjectProxy -->
<g id="node4" class="node">
<title>ObjectProxy</title>
<polygon fill="white" stroke="black" stroke-width="0.5" points="85,-93 14,-93 14,-74 85,-74 85,-93"/>
<text text-anchor="middle" x="49.5" y="-81" font-family="Vera Sans, DejaVu Sans, Liberation Sans, Arial, Helvetica, sans" font-size="10.00">ObjectProxy</text>
</g>
<!-- TableDefList -->
<g id="node7" class="node">
<title>TableDefList</title>
<g id="a_node7"><a xlink:href="../api/tollan.utils.db.TableDefList.html#tollan.utils.db.TableDefList" xlink:title="TableDefList" target="_top">
<polygon fill="white" stroke="black" stroke-width="0.5" points="206,-93 135,-93 135,-74 206,-74 206,-93"/>
<text text-anchor="middle" x="170.5" y="-81" font-family="Vera Sans, DejaVu Sans, Liberation Sans, Arial, Helvetica, sans" font-size="10.00">TableDefList</text>
</a>
</g>
</g>
<!-- ObjectProxy&#45;&gt;TableDefList -->
<g id="edge5" class="edge">
<title>ObjectProxy&#45;&gt;TableDefList</title>
<path fill="none" stroke="black" stroke-width="0.5" d="M85.24,-83.5C99.17,-83.5 115.3,-83.5 129.7,-83.5"/>
<polygon fill="black" stroke="black" stroke-width="0.5" points="129.92,-85.25 134.92,-83.5 129.92,-81.75 129.92,-85.25"/>
</g>
</g>
</svg>
