<?xml version="1.0" encoding="UTF-8" standalone="no"?>
<!DOCTYPE svg PUBLIC "-//W3C//DTD SVG 1.1//EN"
 "http://www.w3.org/Graphics/SVG/1.1/DTD/svg11.dtd">
<!-- Generated by graphviz version 2.42.3 (20191010.1750)
 -->
<!-- Title: inheritance4804894c98 Pages: 1 -->
<svg width="174pt" height="62pt"
 viewBox="0.00 0.00 174.01 62.00" xmlns="http://www.w3.org/2000/svg" xmlns:xlink="http://www.w3.org/1999/xlink">
<g id="graph0" class="graph" transform="scale(1 1) rotate(0) translate(4 58)">
<title>inheritance4804894c98</title>
<!-- ObjectProxy -->
<g id="node1" class="node">
<title>ObjectProxy</title>
<polygon fill="white" stroke="black" stroke-width="0.5" points="73.47,-54 2.54,-54 2.54,-36 73.47,-36 73.47,-54"/>
<text text-anchor="middle" x="38" y="-42" font-family="Vera Sans, DejaVu Sans, Liberation Sans, Arial, Helvetica, sans" font-size="10.00">ObjectProxy</text>
</g>
<!-- Registry -->
<g id="node2" class="node">
<title>Registry</title>
<g id="a_node2"><a xlink:href="../api/tollan.utils.registry.Registry.html#tollan.utils.registry.Registry" xlink:title="Registry" target="_top">
<polygon fill="white" stroke="black" stroke-width="0.5" points="166.01,-36 112.01,-36 112.01,-18 166.01,-18 166.01,-36"/>
<text text-anchor="middle" x="139.01" y="-24" font-family="Vera Sans, DejaVu Sans, Liberation Sans, Arial, Helvetica, sans" font-size="10.00">Registry</text>
</a>
</g>
</g>
<!-- ObjectProxy&#45;&gt;Registry -->
<g id="edge1" class="edge">
<title>ObjectProxy&#45;&gt;Registry</title>
<path fill="none" stroke="black" stroke-width="0.5" d="M73.35,-38.75C84.2,-36.78 96.12,-34.62 106.74,-32.68"/>
<polygon fill="black" stroke="black" stroke-width="0.5" points="107.23,-34.37 111.84,-31.76 106.61,-30.93 107.23,-34.37"/>
</g>
<!-- RegistryMixin -->
<g id="node3" class="node">
<title>RegistryMixin</title>
<polygon fill="white" stroke="black" stroke-width="0.5" points="76.01,-18 -0,-18 -0,0 76.01,0 76.01,-18"/>
<text text-anchor="middle" x="38" y="-6" font-family="Vera Sans, DejaVu Sans, Liberation Sans, Arial, Helvetica, sans" font-size="10.00">RegistryMixin</text>
</g>
<!-- RegistryMixin&#45;&gt;Registry -->
<g id="edge2" class="edge">
<title>RegistryMixin&#45;&gt;Registry</title>
<path fill="none" stroke="black" stroke-width="0.5" d="M76.15,-15.75C86.24,-17.59 97.07,-19.56 106.8,-21.33"/>
<polygon fill="black" stroke="black" stroke-width="0.5" points="106.54,-23.06 111.77,-22.23 107.17,-19.61 106.54,-23.06"/>
</g>
</g>
</svg>
