<?xml version="1.0" encoding="UTF-8" standalone="no"?>
<!DOCTYPE svg PUBLIC "-//W3C//DTD SVG 1.1//EN"
 "http://www.w3.org/Graphics/SVG/1.1/DTD/svg11.dtd">
<!-- Generated by graphviz version 2.47.1 (20210417.1919)
 -->
<!-- Title: inheritanced0788d2648 Pages: 1 -->
<svg width="192pt" height="64pt"
 viewBox="0.00 0.00 192.00 64.00" xmlns="http://www.w3.org/2000/svg" xmlns:xlink="http://www.w3.org/1999/xlink">
<g id="graph0" class="graph" transform="scale(1 1) rotate(0) translate(4 60)">
<title>inheritanced0788d2648</title>
<!-- ContextDecorator -->
<g id="node1" class="node">
<title>ContextDecorator</title>
<g id="a_node1"><a xlink:title="A base class or mixin that enables context managers to work as decorators.">
<polygon fill="white" stroke="black" stroke-width="0.5" points="94,-37 0,-37 0,-18 94,-18 94,-37"/>
<text text-anchor="middle" x="47" y="-25" font-family="Vera Sans, DejaVu Sans, Liberation Sans, Arial, Helvetica, sans" font-size="10.00">ContextDecorator</text>
</a>
</g>
</g>
<!-- logit -->
<g id="node2" class="node">
<title>logit</title>
<g id="a_node2"><a xlink:href="../api/tollan.utils.log.logit.html#tollan.utils.log.logit" xlink:title="Decorator that logs the execution of the decorated item." target="_top">
<polygon fill="white" stroke="black" stroke-width="0.5" points="184,-56 130,-56 130,-37 184,-37 184,-56"/>
<text text-anchor="middle" x="157" y="-44" font-family="Vera Sans, DejaVu Sans, Liberation Sans, Arial, Helvetica, sans" font-size="10.00">logit</text>
</a>
</g>
</g>
<!-- ContextDecorator&#45;&gt;logit -->
<g id="edge1" class="edge">
<title>ContextDecorator&#45;&gt;logit</title>
<path fill="none" stroke="black" stroke-width="0.5" d="M94.11,-35.61C104.47,-37.43 115.21,-39.32 124.79,-41.01"/>
<polygon fill="black" stroke="black" stroke-width="0.5" points="124.75,-42.78 129.98,-41.92 125.36,-39.33 124.75,-42.78"/>
</g>
<!-- timeit -->
<g id="node3" class="node">
<title>timeit</title>
<g id="a_node3"><a xlink:href="../api/tollan.utils.log.timeit.html#tollan.utils.log.timeit" xlink:title="Context decorator that logs the execution time of the decorated item." target="_top">
<polygon fill="white" stroke="black" stroke-width="0.5" points="184,-19 130,-19 130,0 184,0 184,-19"/>
<text text-anchor="middle" x="157" y="-7" font-family="Vera Sans, DejaVu Sans, Liberation Sans, Arial, Helvetica, sans" font-size="10.00">timeit</text>
</a>
</g>
</g>
<!-- ContextDecorator&#45;&gt;timeit -->
<g id="edge2" class="edge">
<title>ContextDecorator&#45;&gt;timeit</title>
<path fill="none" stroke="black" stroke-width="0.5" d="M94.11,-19.81C104.47,-18.09 115.21,-16.3 124.79,-14.7"/>
<polygon fill="black" stroke="black" stroke-width="0.5" points="125.34,-16.38 129.98,-13.84 124.76,-12.93 125.34,-16.38"/>
</g>
</g>
</svg>
