<?xml version="1.0" encoding="UTF-8" standalone="no"?>
<!DOCTYPE svg PUBLIC "-//W3C//DTD SVG 1.1//EN"
 "http://www.w3.org/Graphics/SVG/1.1/DTD/svg11.dtd">
<!-- Generated by graphviz version 2.42.3 (20191010.1750)
 -->
<!-- Title: inheritanced0788d2648 Pages: 1 -->
<svg width="192pt" height="62pt"
 viewBox="0.00 0.00 192.37 62.00" xmlns="http://www.w3.org/2000/svg" xmlns:xlink="http://www.w3.org/1999/xlink">
<g id="graph0" class="graph" transform="scale(1 1) rotate(0) translate(4 58)">
<title>inheritanced0788d2648</title>
<!-- ContextDecorator -->
<g id="node1" class="node">
<title>ContextDecorator</title>
<g id="a_node1"><a xlink:title="A base class or mixin that enables context managers to work as decorators.">
<polygon fill="white" stroke="black" stroke-width="0.5" points="94.55,-36 -0.19,-36 -0.19,-18 94.55,-18 94.55,-36"/>
<text text-anchor="middle" x="47.18" y="-24" font-family="Vera Sans, DejaVu Sans, Liberation Sans, Arial, Helvetica, sans" font-size="10.00">ContextDecorator</text>
</a>
</g>
</g>
<!-- logit -->
<g id="node2" class="node">
<title>logit</title>
<g id="a_node2"><a xlink:href="../api/tollan.utils.log.logit.html#tollan.utils.log.logit" xlink:title="Decorator that logs the execution of the decorated item." target="_top">
<polygon fill="white" stroke="black" stroke-width="0.5" points="184.37,-54 130.37,-54 130.37,-36 184.37,-36 184.37,-54"/>
<text text-anchor="middle" x="157.37" y="-42" font-family="Vera Sans, DejaVu Sans, Liberation Sans, Arial, Helvetica, sans" font-size="10.00">logit</text>
</a>
</g>
</g>
<!-- ContextDecorator&#45;&gt;logit -->
<g id="edge1" class="edge">
<title>ContextDecorator&#45;&gt;logit</title>
<path fill="none" stroke="black" stroke-width="0.5" d="M94.38,-34.69C104.84,-36.43 115.71,-38.24 125.37,-39.84"/>
<polygon fill="black" stroke="black" stroke-width="0.5" points="125.09,-41.57 130.3,-40.66 125.66,-38.12 125.09,-41.57"/>
</g>
<!-- timeit -->
<g id="node3" class="node">
<title>timeit</title>
<g id="a_node3"><a xlink:href="../api/tollan.utils.log.timeit.html#tollan.utils.log.timeit" xlink:title="Context decorator that logs the execution time of the decorated item." target="_top">
<polygon fill="white" stroke="black" stroke-width="0.5" points="184.37,-18 130.37,-18 130.37,0 184.37,0 184.37,-18"/>
<text text-anchor="middle" x="157.37" y="-6" font-family="Vera Sans, DejaVu Sans, Liberation Sans, Arial, Helvetica, sans" font-size="10.00">timeit</text>
</a>
</g>
</g>
<!-- ContextDecorator&#45;&gt;timeit -->
<g id="edge2" class="edge">
<title>ContextDecorator&#45;&gt;timeit</title>
<path fill="none" stroke="black" stroke-width="0.5" d="M94.38,-19.31C104.84,-17.57 115.71,-15.76 125.37,-14.16"/>
<polygon fill="black" stroke="black" stroke-width="0.5" points="125.66,-15.88 130.3,-13.34 125.09,-12.43 125.66,-15.88"/>
</g>
</g>
</svg>
