<?xml version="1.0" encoding="UTF-8" standalone="no"?>
<!DOCTYPE svg PUBLIC "-//W3C//DTD SVG 1.1//EN"
 "http://www.w3.org/Graphics/SVG/1.1/DTD/svg11.dtd">
<!-- Generated by graphviz version 2.47.1 (20210417.1919)
 -->
<!-- Title: inheritancebd5dfb1cc8 Pages: 1 -->
<svg width="488pt" height="82pt"
 viewBox="0.00 0.00 488.00 82.00" xmlns="http://www.w3.org/2000/svg" xmlns:xlink="http://www.w3.org/1999/xlink">
<g id="graph0" class="graph" transform="scale(1 1) rotate(0) translate(4 78)">
<title>inheritancebd5dfb1cc8</title>
<!-- ABC -->
<g id="node1" class="node">
<title>ABC</title>
<g id="a_node1"><a xlink:title="Helper class that provides a standard way to create an ABC using">
<polygon fill="white" stroke="black" stroke-width="0.5" points="54,-74 0,-74 0,-55 54,-55 54,-74"/>
<text text-anchor="middle" x="27" y="-62" font-family="Vera Sans, DejaVu Sans, Liberation Sans, Arial, Helvetica, sans" font-size="10.00">ABC</text>
</a>
</g>
</g>
<!-- AbstractContextManager -->
<g id="node2" class="node">
<title>AbstractContextManager</title>
<g id="a_node2"><a xlink:title="An abstract base class for context managers.">
<polygon fill="white" stroke="black" stroke-width="0.5" points="215,-74 90,-74 90,-55 215,-55 215,-74"/>
<text text-anchor="middle" x="152.5" y="-62" font-family="Vera Sans, DejaVu Sans, Liberation Sans, Arial, Helvetica, sans" font-size="10.00">AbstractContextManager</text>
</a>
</g>
</g>
<!-- ABC&#45;&gt;AbstractContextManager -->
<g id="edge1" class="edge">
<title>ABC&#45;&gt;AbstractContextManager</title>
<path fill="none" stroke="black" stroke-width="0.5" d="M54.19,-64.5C63.2,-64.5 73.73,-64.5 84.48,-64.5"/>
<polygon fill="black" stroke="black" stroke-width="0.5" points="84.77,-66.25 89.77,-64.5 84.77,-62.75 84.77,-66.25"/>
</g>
<!-- ExitStack -->
<g id="node3" class="node">
<title>ExitStack</title>
<g id="a_node3"><a xlink:title="Context manager for dynamic management of a stack of exit callbacks.">
<polygon fill="white" stroke="black" stroke-width="0.5" points="334.5,-56 275.5,-56 275.5,-37 334.5,-37 334.5,-56"/>
<text text-anchor="middle" x="305" y="-44" font-family="Vera Sans, DejaVu Sans, Liberation Sans, Arial, Helvetica, sans" font-size="10.00">ExitStack</text>
</a>
</g>
</g>
<!-- AbstractContextManager&#45;&gt;ExitStack -->
<g id="edge3" class="edge">
<title>AbstractContextManager&#45;&gt;ExitStack</title>
<path fill="none" stroke="black" stroke-width="0.5" d="M215.15,-57.13C233.82,-54.89 253.65,-52.52 269.82,-50.59"/>
<polygon fill="black" stroke="black" stroke-width="0.5" points="270.4,-52.28 275.16,-49.95 269.99,-48.81 270.4,-52.28"/>
</g>
<!-- NcNodeMapper -->
<g id="node5" class="node">
<title>NcNodeMapper</title>
<g id="a_node5"><a xlink:href="../api/tollan.utils.nc.NcNodeMapper.html#tollan.utils.nc.NcNodeMapper" xlink:title="A adaptor class that accesses netCDF4 dataset with a custom name map." target="_top">
<polygon fill="white" stroke="black" stroke-width="0.5" points="480,-37 395,-37 395,-18 480,-18 480,-37"/>
<text text-anchor="middle" x="437.5" y="-25" font-family="Vera Sans, DejaVu Sans, Liberation Sans, Arial, Helvetica, sans" font-size="10.00">NcNodeMapper</text>
</a>
</g>
</g>
<!-- ExitStack&#45;&gt;NcNodeMapper -->
<g id="edge4" class="edge">
<title>ExitStack&#45;&gt;NcNodeMapper</title>
<path fill="none" stroke="black" stroke-width="0.5" d="M334.64,-42.33C350.76,-39.98 371.28,-37 389.67,-34.32"/>
<polygon fill="black" stroke="black" stroke-width="0.5" points="390.1,-36.02 394.8,-33.57 389.6,-32.56 390.1,-36.02"/>
</g>
<!-- _BaseExitStack -->
<g id="node4" class="node">
<title>_BaseExitStack</title>
<g id="a_node4"><a xlink:title="A base class for ExitStack and AsyncExitStack.">
<polygon fill="white" stroke="black" stroke-width="0.5" points="196,-37 109,-37 109,-18 196,-18 196,-37"/>
<text text-anchor="middle" x="152.5" y="-25" font-family="Vera Sans, DejaVu Sans, Liberation Sans, Arial, Helvetica, sans" font-size="10.00">_BaseExitStack</text>
</a>
</g>
</g>
<!-- _BaseExitStack&#45;&gt;ExitStack -->
<g id="edge2" class="edge">
<title>_BaseExitStack&#45;&gt;ExitStack</title>
<path fill="none" stroke="black" stroke-width="0.5" d="M196.22,-32.89C219.72,-35.86 248.45,-39.49 270.33,-42.25"/>
<polygon fill="black" stroke="black" stroke-width="0.5" points="270.28,-44.01 275.46,-42.9 270.72,-40.53 270.28,-44.01"/>
</g>
<!-- NcNodeMapperMixin -->
<g id="node6" class="node">
<title>NcNodeMapperMixin</title>
<g id="a_node6"><a xlink:title="A mix&#45;in class that help access netCDF4 datasets with mapped names.">
<polygon fill="white" stroke="black" stroke-width="0.5" points="359,-19 251,-19 251,0 359,0 359,-19"/>
<text text-anchor="middle" x="305" y="-7" font-family="Vera Sans, DejaVu Sans, Liberation Sans, Arial, Helvetica, sans" font-size="10.00">NcNodeMapperMixin</text>
</a>
</g>
</g>
<!-- NcNodeMapperMixin&#45;&gt;NcNodeMapper -->
<g id="edge5" class="edge">
<title>NcNodeMapperMixin&#45;&gt;NcNodeMapper</title>
<path fill="none" stroke="black" stroke-width="0.5" d="M359.08,-16.82C369.17,-18.21 379.67,-19.66 389.56,-21.03"/>
<polygon fill="black" stroke="black" stroke-width="0.5" points="389.48,-22.78 394.67,-21.73 389.96,-19.31 389.48,-22.78"/>
</g>
</g>
</svg>
